<?xml version="1.0" encoding="UTF-8" standalone="no"?>
<svg width="14px" height="20px" viewBox="0 0 14 20" version="1.1" xmlns="http://www.w3.org/2000/svg" xmlns:xlink="http://www.w3.org/1999/xlink">
    <!-- Generator: Sketch 3.8.1 (29687) - http://www.bohemiancoding.com/sketch -->
    <title>help_icon</title>
    <desc>Created with Sketch.</desc>
    <defs>
        <polygon id="path-1" points="6.6572 20 13.314 20 13.314 0 6.6572 0 0.0004 0 0.0004 20"></polygon>
    </defs>
    <g id="Page-1" stroke="none" stroke-width="1" fill="none" fill-rule="evenodd">
        <g id="help_icon">
            <mask id="mask-2" fill="white">
                <use xlink:href="#path-1"></use>
            </mask>
            <g id="Clip-2"></g>
            <path d="M5.9854,15.189 C7.3834,15.189 8.4194,16.224 8.4194,17.566 L8.4194,17.623 C8.4194,18.966 7.3834,20 5.9854,20 C4.5874,20 3.5514,18.966 3.5514,17.623 L3.5514,17.566 C3.5514,16.224 4.5874,15.189 5.9854,15.189 L5.9854,15.189 Z M5.9854,13.342 C5.1744,13.342 4.5874,12.727 4.4764,11.972 L4.1954,10.07 C4.0544,9.146 4.5874,8.504 5.4824,8.392 C7.9164,8.084 9.0354,7.329 9.0354,5.958 L9.0354,5.902 C9.0354,4.643 8.0834,3.916 6.4614,3.916 C5.2584,3.916 4.2244,4.28 3.2154,5.034 C2.8804,5.286 2.4344,5.482 1.9584,5.482 C0.8954,5.482 0.0004,4.587 0.0004,3.524 C0.0004,2.993 0.2224,2.433 0.7274,2.014 C2.2094,0.783 4.0844,0 6.5454,0 C10.5744,0 13.3144,2.069 13.3144,5.79 L13.3144,5.846 C13.3144,9.399 10.8534,10.853 7.8054,11.468 L7.7214,11.972 C7.6084,12.7 7.0214,13.342 6.2094,13.342 L5.9854,13.342 Z" id="Fill-1" fill="#CCCCCC" mask="url(#mask-2)"></path>
        </g>
    </g>
</svg>