<?xml version="1.0" encoding="UTF-8" standalone="no"?>
<svg width="20px" height="17px" viewBox="0 0 20 17" version="1.1" xmlns="http://www.w3.org/2000/svg" xmlns:xlink="http://www.w3.org/1999/xlink">
    <!-- Generator: Sketch 3.8.1 (29687) - http://www.bohemiancoding.com/sketch -->
    <title>houses_icon</title>
    <desc>Created with Sketch.</desc>
    <defs>
        <polygon id="path-1" points="19.99905 0.178 0 0.178 0 10.6724 19.99905 10.6724 19.99905 0.178"></polygon>
    </defs>
    <g id="Page-1" stroke="none" stroke-width="1" fill="none" fill-rule="evenodd">
        <g id="houses_icon" transform="translate(0.000000, -1.000000)">
            <path d="M10.4248,2.8477 L16.9198,9.3507 L16.9198,9.5507 L10.0398,2.6717 C10.1768,2.6797 10.3128,2.7437 10.4248,2.8477" id="Fill-1" fill="#ECECEC"></path>
            <path d="M10.04,2.6714 L16.92,9.5504 L16.92,16.8224 C16.92,17.3744 16.472,17.8214 15.92,17.8214 L11.952,17.8214 L11.952,12.8064 C11.952,12.2544 11.505,11.8064 10.952,11.8064 L9.049,11.8064 C8.488,11.8064 8.04,12.2544 8.04,12.8064 L8.04,17.8214 L4.081,17.8214 C3.521,17.8214 3.073,17.3744 3.073,16.8224 L3.073,9.5504 L9.961,2.6714 L10,2.6714 L10.04,2.6714 Z M11.368,6.9194 C11.368,6.1674 10.752,5.5514 10,5.5514 C9.24,5.5514 8.624,6.1674 8.624,6.9194 C8.624,7.6794 9.24,8.2944 10,8.2944 C10.752,8.2944 11.368,7.6794 11.368,6.9194 L11.368,6.9194 Z" id="Fill-3" fill="#CCCCCC"></path>
            <path d="M9.5684,2.8477 C9.6804,2.7437 9.8164,2.6797 9.9614,2.6717 L3.0734,9.5507 L3.0734,9.3507 L9.5684,2.8477 Z" id="Fill-5" fill="#CCCCCC"></path>
            <g id="Group-9" transform="translate(0.000000, 0.822300)">
                <mask id="mask-2" fill="white">
                    <use xlink:href="#path-1"></use>
                </mask>
                <g id="Clip-8"></g>
                <path d="M19.7598,9.2964 C20.0788,9.6164 20.0788,10.1204 19.7598,10.4324 C19.5998,10.5844 19.3998,10.6644 19.1918,10.6644 C18.9838,10.6644 18.7828,10.5844 18.6228,10.4324 L16.9198,8.7284 L16.9198,8.5284 L10.4248,2.0254 C10.3128,1.9214 10.1768,1.8574 10.0398,1.8494 L9.9998,1.8094 L9.9608,1.8494 C9.8168,1.8574 9.6808,1.9214 9.5688,2.0254 L3.0728,8.5284 L3.0728,8.7284 L1.3688,10.4324 C1.2088,10.5924 1.0098,10.6724 0.8018,10.6724 C0.5938,10.6724 0.3938,10.5924 0.2338,10.4324 C-0.0782,10.1204 -0.0782,9.6164 0.2338,9.2964 L8.9048,0.6334 C9.1998,0.3294 9.6008,0.1774 9.9998,0.1774 C10.3928,0.1774 10.7918,0.3294 11.0968,0.6334 L19.7598,9.2964 Z" id="Fill-7" fill="#CCCCCC" mask="url(#mask-2)"></path>
            </g>
        </g>
    </g>
</svg>