<?xml version="1.0" encoding="UTF-8" standalone="no"?>
<svg width="20px" height="20px" viewBox="0 0 20 20" version="1.1" xmlns="http://www.w3.org/2000/svg" xmlns:xlink="http://www.w3.org/1999/xlink">
    <!-- Generator: Sketch 3.8.1 (29687) - http://www.bohemiancoding.com/sketch -->
    <title>invite_icon</title>
    <desc>Created with Sketch.</desc>
    <defs></defs>
    <g id="Page-1" stroke="none" stroke-width="1" fill="none" fill-rule="evenodd">
        <path d="M7.7559,12.0469 L2.1649,12.0469 C0.9849,12.0469 -0.0001,11.1019 -0.0001,9.8819 C-0.0001,8.6999 0.9849,7.7159 2.1649,7.7159 L7.7559,7.7159 L7.7559,2.2449 C7.7559,0.9849 8.7399,-0.0001 9.9999,-0.0001 C11.2199,-0.0001 12.2429,0.9849 12.2429,2.2449 L12.2429,7.7159 L17.8339,7.7159 C19.0139,7.7159 19.9999,8.6999 19.9999,9.8819 C19.9999,11.1019 19.0139,12.0469 17.8339,12.0469 L12.2429,12.0469 L12.2429,17.5179 C12.2429,18.7779 11.2199,19.7629 9.9999,19.7629 C8.7399,19.7629 7.7559,18.7779 7.7559,17.5179 L7.7559,12.0469 Z" id="invite_icon" fill="#CCCCCC"></path>
    </g>
</svg>