<?xml version="1.0" encoding="UTF-8" standalone="no"?>
<svg width="20px" height="21px" viewBox="0 0 20 21" version="1.1" xmlns="http://www.w3.org/2000/svg" xmlns:xlink="http://www.w3.org/1999/xlink">
    <!-- Generator: Sketch 3.8.1 (29687) - http://www.bohemiancoding.com/sketch -->
    <title>profile_icon@3x</title>
    <desc>Created with Sketch.</desc>
    <defs>
        <polygon id="path-1" points="-0.0002 6 9.9998 6 9.9998 0.0713 -0.0002 0.0713 -0.0002 6"></polygon>
        <polygon id="path-3" points="0.0002 6 10.0002 6 10.0002 0.0713 0.0002 0.0713"></polygon>
        <polygon id="path-5" points="9.11082236 0.784 0.6302 0.784 0.6302 8.38508404 9.11082236 8.38508404 9.11082236 0.784"></polygon>
    </defs>
    <g id="Page-1" stroke="none" stroke-width="1" fill="none" fill-rule="evenodd">
        <g id="profile_icon" transform="translate(0.000000, -1.000000)">
            <path d="M12.7158,13.0815 C12.7158,13.0815 12.4338,14.5085 13.3408,15.2875 C13.3408,15.2875 11.8808,16.2365 9.9998,16.0785 L9.9998,11.8325 L12.7158,13.0815 Z" id="Fill-1" fill="#CCCCCC"></path>
            <g id="Group-5" transform="translate(10.000000, 15.216300)">
                <mask id="mask-2" fill="white">
                    <use xlink:href="#path-1"></use>
                </mask>
                <g id="Clip-4"></g>
                <path d="M3.3418,0.0713 C3.3418,0.0713 4.2828,0.7293 7.1958,2.1663 C9.4418,3.2733 9.9708,4.1823 9.9998,6.0003 L-0.0002,6.0003 L-0.0002,0.8623 C-0.0002,0.8623 1.6328,0.9973 3.3418,0.0713" id="Fill-3" fill="#CCCCCC" mask="url(#mask-2)"></path>
            </g>
            <path d="M13.2168,15.1689 L13.3418,15.2869 C13.3418,15.2869 12.0458,16.1029 9.9998,16.0789 L9.9998,16.9859 C9.9998,16.9859 12.5248,16.9939 14.2038,15.7949 C14.2038,15.7949 13.8088,15.5649 13.4128,15.1689 C13.3298,15.0859 13.2168,15.1689 13.2168,15.1689" id="Fill-6" fill="#CCCCCC"></path>
            <path d="M7.2842,13.0815 C7.2842,13.0815 7.5662,14.5085 6.6592,15.2875 C6.6592,15.2875 8.1192,16.2365 10.0002,16.0785 L10.0002,11.8325 L7.2842,13.0815 Z" id="Fill-8" fill="#CCCCCC"></path>
            <path d="M10,1.8403 C6.235,1.8403 4.974,5.0173 5.321,8.3853 C5.745,12.4863 7.416,14.5163 10,14.5163" id="Fill-10" fill="#CCCCCC"></path>
            <path d="M5.3291,8.1782 C5.3291,8.1782 4.6381,8.1782 4.7501,9.2312 C4.8771,10.4312 5.3941,11.1662 5.8181,10.9792 L5.3291,8.1782 Z" id="Fill-12" fill="#CCCCCC"></path>
            <g id="Group-16" transform="translate(0.000000, 15.216300)">
                <mask id="mask-4" fill="white">
                    <use xlink:href="#path-3"></use>
                </mask>
                <g id="Clip-15"></g>
                <path d="M6.6582,0.0713 C6.6582,0.0713 5.7172,0.7293 2.8042,2.1663 C0.5582,3.2733 0.0292,4.1823 0.0002,6.0003 L10.0002,6.0003 L10.0002,0.8623 C10.0002,0.8623 8.3672,0.9973 6.6582,0.0713" id="Fill-14" fill="#CCCCCC" mask="url(#mask-4)"></path>
            </g>
            <path d="M10,1.8403 C13.765,1.8403 15.026,5.0173 14.679,8.3853 C14.255,12.4863 12.584,14.5163 10,14.5163" id="Fill-17" fill="#CCCCCC"></path>
            <path d="M14.6709,8.1782 C14.6709,8.1782 15.3619,8.1782 15.2499,9.2312 C15.1229,10.4312 14.6059,11.1662 14.1819,10.9792 L14.6709,8.1782 Z" id="Fill-19" fill="#CCCCCC"></path>
            <path d="M6.6299,2.4507 C6.6299,2.4507 5.2349,2.6897 4.9849,4.1817 C4.7999,5.2867 5.2769,8.1787 5.2769,8.1787 C5.2769,8.1787 5.5569,8.2477 5.7229,8.5927 C5.8009,8.7547 5.6909,6.7077 5.8179,5.7477 C5.9719,4.5867 6.9979,4.1637 6.9979,4.1637 L6.6299,2.4507 Z" id="Fill-21" fill="#CCCCCC"></path>
            <g id="Group-25" transform="translate(6.000000, 0.216300)">
                <mask id="mask-6" fill="white">
                    <use xlink:href="#path-5"></use>
                </mask>
                <g id="Clip-24"></g>
                <path d="M5.1602,0.853 C1.6982,0.411 0.6302,2.234 0.6302,2.234 L0.9982,3.947 C0.9982,3.947 2.5052,4.343 4.0002,4.371 C5.5242,4.398 6.3532,4.022 6.7862,4.037 C6.9832,4.044 7.3002,4.121 7.6022,4.387 C7.8512,4.639 8.0962,5.01 8.1652,5.531 C8.2922,6.492 8.1832,8.538 8.2602,8.376 C8.4262,8.031 8.7052,7.962 8.7052,7.962 C8.7052,7.962 8.8872,6.86 8.9832,5.757 C9.0182,5.494 9.0522,5.24 9.0832,5.015 C9.2642,3.708 8.6222,1.295 5.1602,0.853" id="Fill-23" fill="#CCCCCC" mask="url(#mask-6)"></path>
            </g>
            <path d="M6.7832,15.1689 L6.6582,15.2869 C6.6582,15.2869 7.9542,16.1029 10.0002,16.0789 L10.0002,16.9859 C10.0002,16.9859 7.4752,16.9939 5.7962,15.7949 C5.7962,15.7949 6.1912,15.5649 6.5872,15.1689 C6.6702,15.0859 6.7832,15.1689 6.7832,15.1689" id="Fill-26" fill="#CCCCCC"></path>
        </g>
    </g>
</svg>