<?xml version="1.0" encoding="UTF-8" standalone="no"?>
<svg width="20px" height="17px" viewBox="0 0 20 17" version="1.1" xmlns="http://www.w3.org/2000/svg" xmlns:xlink="http://www.w3.org/1999/xlink">
    <!-- Generator: Sketch 3.8.1 (29687) - http://www.bohemiancoding.com/sketch -->
    <title>reserve_icon</title>
    <desc>Created with Sketch.</desc>
    <defs>
        <polygon id="path-1" points="3.999 13.9998 3.999 0.5308 0.2611 0.5308 0.2611 13.9998 3.999 13.9998"></polygon>
        <polygon id="path-3" points="9.8274 0.643 0.1204 0.643 0.1204 16.9998 9.8274 16.9998 9.8274 0.643"></polygon>
    </defs>
    <g id="Page-1" stroke="none" stroke-width="1" fill="none" fill-rule="evenodd">
        <g id="reserve_icon" transform="translate(0.000000, -1.000000)">
            <path d="M0,4.5581 L0,14.0391 L0,16.6871 C0,17.0561 0.3,17.3571 0.67,17.3571 L3.686,17.3571 L3.686,3.8881 L0.67,3.8881 C0.3,3.8881 0,4.1871 0,4.5581" id="Fill-1" fill="#CCCCCC"></path>
            <g id="Group-5" transform="translate(16.000000, 3.357400)">
                <mask id="mask-2" fill="white">
                    <use xlink:href="#path-1"></use>
                </mask>
                <g id="Clip-4"></g>
                <path d="M3.3291,0.5308 L0.2611,0.5308 L0.2611,13.9998 L3.3291,13.9998 C3.6991,13.9998 3.9991,13.6988 3.9991,13.3298 L3.9991,10.6818 L3.9991,1.2008 C3.9991,0.8298 3.6991,0.5308 3.3291,0.5308" id="Fill-3" fill="#CCCCCC" mask="url(#mask-2)"></path>
            </g>
            <g id="Group-8" transform="translate(5.000000, 0.357400)">
                <mask id="mask-4" fill="white">
                    <use xlink:href="#path-3"></use>
                </mask>
                <g id="Clip-7"></g>
                <path d="M3.3164,3.5308 C3.3164,2.6198 4.0544,1.8808 4.9654,1.8808 C5.8774,1.8808 6.6164,2.6198 6.6164,3.5308 L3.3164,3.5308 Z M4.9654,0.6428 C3.3714,0.6428 2.0784,1.9358 2.0784,3.5308 L0.1204,3.5308 L0.1204,5.3778 L0.1204,16.9998 L9.8274,16.9998 L9.8274,5.3778 L9.8274,3.5308 L7.8534,3.5308 C7.8534,1.9358 6.5604,0.6428 4.9654,0.6428 L4.9654,0.6428 Z" id="Fill-6" fill="#CCCCCC" mask="url(#mask-4)"></path>
            </g>
        </g>
    </g>
</svg>