<?xml version="1.0" encoding="UTF-8" standalone="no"?>
<svg width="23px" height="24px" viewBox="0 0 23 24" version="1.1" xmlns="http://www.w3.org/2000/svg" xmlns:xlink="http://www.w3.org/1999/xlink">
    <!-- Generator: Sketch 3.7.2 (28276) - http://www.bohemiancoding.com/sketch -->
    <title>bath_icon</title>
    <desc>Created with Sketch.</desc>
    <defs></defs>
    <g id="Page-1" stroke="none" stroke-width="1" fill="none" fill-rule="evenodd">
        <g id="header_image" transform="translate(-858.000000, -1692.000000)">
            <g id="Group-583" transform="translate(362.000000, 1583.000000)">
                <g id="bath_icon" transform="translate(496.000000, 109.000000)">
                    <path d="M22.6819,13.0183 C22.6819,13.5093 22.2739,13.9083 21.7709,13.9083 L1.7749,13.9083 C1.2709,13.9083 0.8639,13.5093 0.8639,13.0183 C0.8639,12.5273 1.2709,12.1283 1.7749,12.1283 L21.7709,12.1283 C22.2739,12.1283 22.6819,12.5273 22.6819,13.0183 L22.6819,13.0183 Z" id="Stroke-572" stroke="#929393" stroke-width="0.526"></path>
                    <path d="M10.4331,1.6992 C9.1381,0.4342 7.0371,0.4342 5.7421,1.6992 C4.4461,2.9642 4.4461,5.0152 5.7421,6.2802 L10.4331,1.6992 L10.4331,1.6992 Z" id="Stroke-573" stroke="#929393" stroke-width="0.83"></path>
                    <path d="M5.7691,1.6489 C3.9371,1.6489 2.4521,3.0989 2.4521,4.8879 L2.4521,11.9009" id="Stroke-574" stroke="#929393" stroke-width="0.83"></path>
                    <path d="M2.2911,13.9993 L2.2911,17.7173 C2.2911,19.9823 4.9621,21.8173 8.2571,21.8173 L15.4281,21.8173 C18.7231,21.8173 21.3941,19.9823 21.3941,17.7173 L21.3941,14.0903" id="Stroke-575" stroke="#929393" stroke-width="0.83"></path>
                    <path d="M5.045,22.7815 C5.045,23.1215 4.763,23.3975 4.414,23.3975 C4.066,23.3975 3.784,23.1215 3.784,22.7815 L3.784,21.3675 C3.784,21.0275 4.066,20.7515 4.414,20.7515 C4.763,20.7515 5.045,21.0275 5.045,21.3675 L5.045,22.7815 Z" id="Fill-576" fill="#929393"></path>
                    <path d="M19.9021,22.7815 C19.9021,23.1215 19.6201,23.3975 19.2711,23.3975 C18.9231,23.3975 18.6411,23.1215 18.6411,22.7815 L18.6411,21.3675 C18.6411,21.0275 18.9231,20.7515 19.2711,20.7515 C19.6201,20.7515 19.9021,21.0275 19.9021,21.3675 L19.9021,22.7815 Z" id="Fill-577" fill="#929393"></path>
                </g>
            </g>
        </g>
    </g>
</svg>