<?xml version="1.0" encoding="UTF-8" standalone="no"?>
<svg width="27px" height="25px" viewBox="0 0 27 25" version="1.1" xmlns="http://www.w3.org/2000/svg" xmlns:xlink="http://www.w3.org/1999/xlink">
    <!-- Generator: Sketch 3.7.2 (28276) - http://www.bohemiancoding.com/sketch -->
    <title>depto_icon</title>
    <desc>Created with Sketch.</desc>
    <defs></defs>
    <g id="Page-1" stroke="none" stroke-width="1" fill="none" fill-rule="evenodd">
        <g id="header_image" transform="translate(-770.000000, -1691.000000)" fill="#929393">
            <g id="Group-583" transform="translate(362.000000, 1583.000000)">
                <g id="depto_icon" transform="translate(408.000000, 108.000000)">
                    <path d="M23.352,24.7585 L15.793,24.7585 L15.793,17.9045 L11.474,17.9045 L11.474,24.7585 L3.915,24.7585 L3.915,13.6865 C3.915,13.3955 4.156,13.1595 4.454,13.1595 C4.753,13.1595 4.994,13.3955 4.994,13.6865 L4.994,23.7045 L10.394,23.7045 L10.394,16.8505 L16.873,16.8505 L16.873,23.7045 L22.272,23.7045 L22.272,14.2135 C22.272,13.9225 22.513,13.6865 22.812,13.6865 C23.111,13.6865 23.352,13.9225 23.352,14.2135 L23.352,24.7585 Z" id="Fill-530"></path>
                    <path d="M26.0517,13.6868 C25.9177,13.6868 25.7837,13.6378 25.6787,13.5408 L13.6337,2.2898 L1.5877,13.5408 C1.3727,13.7418 1.0307,13.7348 0.8247,13.5248 C0.6187,13.3138 0.6267,12.9798 0.8417,12.7788 L13.6337,0.8308 L26.4247,12.7788 C26.6397,12.9798 26.6477,13.3138 26.4417,13.5238 C26.3357,13.6318 26.1947,13.6868 26.0517,13.6868" id="Fill-531"></path>
                    <path d="M21.7322,7.3599 C21.4332,7.3599 21.1922,7.1239 21.1922,6.8329 L21.1922,3.6689 L17.9522,3.6689 C17.6542,3.6689 17.4132,3.4329 17.4132,3.1419 C17.4132,2.8509 17.6542,2.6149 17.9522,2.6149 L22.2722,2.6149 L22.2722,6.8329 C22.2722,7.1239 22.0312,7.3599 21.7322,7.3599" id="Fill-532"></path>
                </g>
            </g>
        </g>
    </g>
</svg>