<?xml version="1.0" encoding="UTF-8" standalone="no"?>
<svg width="17px" height="17px" viewBox="0 0 17 17" version="1.1" xmlns="http://www.w3.org/2000/svg" xmlns:xlink="http://www.w3.org/1999/xlink">
    <!-- Generator: Sketch 3.7.2 (28276) - http://www.bohemiancoding.com/sketch -->
    <title>help_icon</title>
    <desc>Created with Sketch.</desc>
    <defs></defs>
    <g id="Page-1" stroke="none" stroke-width="1" fill="none" fill-rule="evenodd">
        <g id="header_image" transform="translate(-1692.000000, -22.000000)">
            <g id="Page-1" transform="translate(83.000000, 0.000000)">
                <g id="Group-84">
                    <g id="help_icon" transform="translate(1609.000000, 22.000000)">
                        <path d="M7.397,13.498 L9.194,13.498 L9.194,11.822 L7.397,11.822 L7.397,13.498 Z M5.265,6.969 C5.265,6.477 5.339,6.03 5.486,5.628 C5.634,5.225 5.848,4.881 6.13,4.595 C6.411,4.309 6.751,4.088 7.149,3.931 C7.546,3.775 7.991,3.697 8.483,3.697 C8.894,3.697 9.276,3.757 9.629,3.878 C9.982,3.998 10.291,4.173 10.555,4.401 C10.818,4.629 11.026,4.913 11.178,5.252 C11.33,5.592 11.406,5.976 11.406,6.405 C11.406,6.718 11.373,6.989 11.305,7.217 C11.238,7.444 11.149,7.641 11.037,7.806 C10.925,7.972 10.798,8.12 10.655,8.249 C10.512,8.379 10.369,8.506 10.226,8.631 C10.056,8.774 9.9,8.913 9.757,9.047 C9.614,9.181 9.488,9.331 9.381,9.496 C9.274,9.662 9.191,9.856 9.133,10.079 C9.075,10.303 9.046,10.575 9.046,10.897 L7.598,10.897 C7.598,10.504 7.618,10.171 7.658,9.898 C7.699,9.626 7.763,9.387 7.853,9.181 C7.942,8.975 8.052,8.794 8.181,8.638 C8.311,8.482 8.465,8.327 8.644,8.175 C8.787,8.05 8.923,7.934 9.053,7.827 C9.182,7.719 9.298,7.601 9.401,7.471 C9.504,7.342 9.584,7.196 9.643,7.035 C9.701,6.875 9.73,6.682 9.73,6.459 C9.73,6.191 9.683,5.961 9.589,5.768 C9.495,5.576 9.381,5.422 9.247,5.306 C9.113,5.19 8.97,5.105 8.818,5.051 C8.666,4.997 8.532,4.971 8.416,4.971 C7.861,4.971 7.452,5.152 7.189,5.514 C6.925,5.876 6.793,6.361 6.793,6.969 L5.265,6.969 Z" id="Fill-79" fill="#4D4D4D"></path>
                        <path d="M16.053,8.5977 C16.053,12.8997 12.565,16.3877 8.263,16.3877 C3.961,16.3877 0.473,12.8997 0.473,8.5977 C0.473,4.2957 3.961,0.8077 8.263,0.8077 C12.565,0.8077 16.053,4.2957 16.053,8.5977 L16.053,8.5977 Z" id="Stroke-82" stroke="#4D4D4D" stroke-width="0.754"></path>
                    </g>
                </g>
            </g>
        </g>
    </g>
</svg>