<?xml version="1.0" encoding="UTF-8" standalone="no"?>
<svg width="25px" height="22px" viewBox="0 0 25 22" version="1.1" xmlns="http://www.w3.org/2000/svg" xmlns:xlink="http://www.w3.org/1999/xlink">
    <!-- Generator: Sketch 3.8.1 (29687) - http://www.bohemiancoding.com/sketch -->
    <title>house_icon</title>
    <desc>Created with Sketch.</desc>
    <defs>
        <polygon id="path-1" points="25.0009 -0.0004 0.00015 -0.0004 0.00015 21.0355 25.0009 21.0355 25.0009 -0.0004"></polygon>
    </defs>
    <g id="Page-1" stroke="none" stroke-width="1" fill="none" fill-rule="evenodd">
        <g id="house_icon">
            <mask id="mask-2" fill="white">
                <use xlink:href="#path-1"></use>
            </mask>
            <g id="Clip-2"></g>
            <path d="M11.5459,13.2475 L9.1659,13.2475 C8.6629,13.2475 8.2429,12.8455 8.2429,12.3255 C8.2429,11.8225 8.6629,11.4035 9.1659,11.4035 L11.5459,11.4035 L11.5459,9.0745 C11.5459,8.5385 11.9649,8.1185 12.5009,8.1185 C13.0209,8.1185 13.4569,8.5385 13.4569,9.0745 L13.4569,11.4035 L15.8369,11.4035 C16.3389,11.4035 16.7589,11.8225 16.7589,12.3255 C16.7589,12.8455 16.3389,13.2475 15.8369,13.2475 L13.4569,13.2475 L13.4569,15.5775 C13.4569,16.1135 13.0209,16.5325 12.5009,16.5325 C11.9649,16.5325 11.5459,16.1135 11.5459,15.5775 L11.5459,13.2475 Z M12.5009,2.0945 C12.4759,2.0945 12.4519,2.1065 12.4279,2.1085 L12.5009,2.0355 L12.5729,2.1085 C12.5489,2.1055 12.5249,2.0945 12.5009,2.0945 L12.5009,2.0945 Z M24.7069,11.4055 L13.8729,0.5685 C13.4949,0.1925 12.9929,-0.0015 12.5009,-0.0005 C12.0079,-0.0015 11.5069,0.1935 11.1289,0.5685 L0.2949,11.4055 C-0.0981,11.7975 -0.0981,12.4335 0.2949,12.8245 C0.4899,13.0195 0.7449,13.1195 1.0039,13.1195 C1.2609,13.1195 1.5189,13.0195 1.7149,12.8245 L1.7149,12.8235 L3.8459,10.6925 L3.8459,19.7805 C3.8459,20.4745 4.4049,21.0355 5.0999,21.0355 L10.0539,21.0355 L14.9479,21.0355 L19.9039,21.0355 C20.5969,21.0355 21.1589,20.4745 21.1589,19.7805 L21.1589,10.6955 L23.2879,12.8235 C23.6799,13.2165 24.3149,13.2165 24.7069,12.8245 C25.0989,12.4335 25.0989,11.7975 24.7069,11.4055 L24.7069,11.4055 Z" id="Fill-1" fill="#7CB8CB" mask="url(#mask-2)"></path>
        </g>
    </g>
</svg>