<?xml version="1.0" encoding="UTF-8" standalone="no"?>
<svg width="30px" height="30px" viewBox="0 0 30 30" version="1.1" xmlns="http://www.w3.org/2000/svg" xmlns:xlink="http://www.w3.org/1999/xlink">
    <!-- Generator: Sketch 3.8.1 (29687) - http://www.bohemiancoding.com/sketch -->
    <title>house_mtp_icon</title>
    <desc>Created with Sketch.</desc>
    <defs></defs>
    <g id="Page-1" stroke="none" stroke-width="1" fill="none" fill-rule="evenodd">
        <g id="house_mtp_icon">
            <path d="M30,14.999 C30,23.283 23.285,30 15,30 C6.716,30 0,23.283 0,14.999 C0,6.716 6.716,0 15,0 C23.285,0 30,6.716 30,14.999" id="Fill-1" fill="#EC1E79"></path>
            <path d="M3.7852,15.6279 C3.5372,15.3809 3.5372,14.9799 3.7852,14.7319 L10.6242,7.8929 C10.8602,7.6559 11.1772,7.5329 11.4882,7.5339 C11.8002,7.5329 12.1182,7.6559 12.3542,7.8929 L19.1932,14.7319 C19.4402,14.9799 19.4402,15.3809 19.1932,15.6279 C18.9452,15.8749 18.5442,15.8749 18.2982,15.6269 L11.4882,8.8169 L4.6812,15.6269 L4.6812,15.6279 C4.5562,15.7509 4.3942,15.8139 4.2312,15.8139 C4.0702,15.8139 3.9082,15.7509 3.7852,15.6279" id="Fill-3" fill="#FFFFFF"></path>
            <path d="M11.8252,8.9941 C11.7302,8.9021 11.6112,8.8561 11.4882,8.8561 C11.3662,8.8561 11.2462,8.9021 11.1522,8.9941 L6.0252,14.1221 L6.0252,20.0181 C6.0252,20.4561 6.3792,20.8101 6.8172,20.8101 L9.9432,20.8101 L9.9432,16.8511 C9.9432,16.4141 10.2992,16.0601 10.7362,16.0601 L12.2402,16.0601 C12.6792,16.0601 13.0322,16.4141 13.0322,16.8511 L13.0322,20.8101 L16.1622,20.8101 C16.5972,20.8101 16.9532,20.4561 16.9532,20.0181 L16.9532,14.1221 L11.8252,8.9941 Z" id="Fill-5" fill="#FFFFFF"></path>
            <path d="M10.8086,15.6279 C10.5606,15.3809 10.5606,14.9799 10.8086,14.7319 L17.6456,7.8929 C17.8836,7.6559 18.2006,7.5329 18.5116,7.5339 C18.8236,7.5329 19.1396,7.6559 19.3776,7.8929 L26.2146,14.7319 C26.4626,14.9799 26.4626,15.3809 26.2146,15.6279 C25.9676,15.8749 25.5676,15.8749 25.3196,15.6269 L18.5116,8.8169 L11.7046,15.6269 L11.7046,15.6279 C11.5796,15.7509 11.4176,15.8139 11.2546,15.8139 C11.0916,15.8139 10.9316,15.7509 10.8086,15.6279" id="Fill-7" fill="#FFFFFF"></path>
            <path d="M18.8477,8.9941 C18.7527,8.9021 18.6347,8.8561 18.5117,8.8561 C18.3897,8.8561 18.2697,8.9021 18.1747,8.9941 L13.0487,14.1221 L13.0487,20.0181 C13.0487,20.4561 13.4027,20.8101 13.8407,20.8101 L16.9667,20.8101 L16.9667,16.8511 C16.9667,16.4141 17.3227,16.0601 17.7577,16.0601 L19.2647,16.0601 C19.7017,16.0601 20.0567,16.4141 20.0567,16.8511 L20.0567,20.8101 L23.1847,20.8101 C23.6207,20.8101 23.9767,20.4561 23.9767,20.0181 L23.9767,14.1221 L18.8477,8.9941 Z" id="Fill-9" fill="#FFFFFF"></path>
            <path d="M12.5713,12.2061 C12.5713,12.8061 12.0873,13.2901 11.4883,13.2901 C10.8913,13.2901 10.4063,12.8061 10.4063,12.2061 C10.4063,11.6091 10.8913,11.1251 11.4883,11.1251 C12.0873,11.1251 12.5713,11.6091 12.5713,12.2061" id="Fill-11" fill="#E52579"></path>
            <path d="M19.5947,12.2061 C19.5947,12.8061 19.1087,13.2901 18.5117,13.2901 C17.9147,13.2901 17.4297,12.8061 17.4297,12.2061 C17.4297,11.6091 17.9147,11.1251 18.5117,11.1251 C19.1087,11.1251 19.5947,11.6091 19.5947,12.2061" id="Fill-13" fill="#E52579"></path>
        </g>
    </g>
</svg>