<?xml version="1.0" encoding="UTF-8" standalone="no"?>
<svg width="20px" height="19px" viewBox="0 0 20 19" version="1.1" xmlns="http://www.w3.org/2000/svg" xmlns:xlink="http://www.w3.org/1999/xlink">
    <!-- Generator: Sketch 3.7.2 (28276) - http://www.bohemiancoding.com/sketch -->
    <title>home_icon</title>
    <desc>Created with Sketch.</desc>
    <defs></defs>
    <g id="Page-1" stroke="none" stroke-width="1" fill="none" fill-rule="evenodd">
        <g id="header_image" transform="translate(-1434.000000, -21.000000)" fill="#4D4D4D">
            <g id="Page-1" transform="translate(83.000000, 0.000000)">
                <g id="Group-84">
                    <g id="home_icon" transform="translate(1351.000000, 21.000000)">
                        <path d="M17.1825,18.7928 L11.5095,18.7928 L11.5095,13.5248 L8.2675,13.5248 L8.2675,18.7928 L2.5945,18.7928 L2.5945,10.2828 C2.5945,10.0598 2.7755,9.8778 3.0005,9.8778 C3.2245,9.8778 3.4055,10.0598 3.4055,10.2828 L3.4055,17.9828 L7.4575,17.9828 L7.4575,12.7148 L12.3195,12.7148 L12.3195,17.9828 L16.3725,17.9828 L16.3725,10.6888 C16.3725,10.4648 16.5535,10.2828 16.7775,10.2828 C17.0015,10.2828 17.1825,10.4648 17.1825,10.6888 L17.1825,18.7928 L17.1825,18.7928 Z" id="Fill-71"></path>
                        <path d="M19.2086,10.2833 C19.1076,10.2833 19.0076,10.2463 18.9286,10.1713 L9.8886,1.5243 L0.8486,10.1713 C0.6866,10.3253 0.4306,10.3203 0.2756,10.1583 C0.1206,9.9973 0.1266,9.7403 0.2886,9.5853 L9.8886,0.4023 L19.4886,9.5853 C19.6496,9.7403 19.6556,9.9963 19.5016,10.1583 C19.4216,10.2413 19.3156,10.2833 19.2086,10.2833" id="Fill-73"></path>
                        <path d="M15.9669,5.4207 C15.7429,5.4207 15.5619,5.2387 15.5619,5.0157 L15.5619,2.5837 L13.1299,2.5837 C12.9059,2.5837 12.7249,2.4027 12.7249,2.1787 C12.7249,1.9557 12.9059,1.7737 13.1299,1.7737 L16.3719,1.7737 L16.3719,5.0157 C16.3719,5.2387 16.1909,5.4207 15.9669,5.4207" id="Fill-75"></path>
                    </g>
                </g>
            </g>
        </g>
    </g>
</svg>