<?xml version="1.0" encoding="UTF-8" standalone="no"?>
<svg width="21px" height="21px" viewBox="0 0 21 21" version="1.1" xmlns="http://www.w3.org/2000/svg" xmlns:xlink="http://www.w3.org/1999/xlink">
    <!-- Generator: Sketch 3.8.1 (29687) - http://www.bohemiancoding.com/sketch -->
    <title>location_icon</title>
    <desc>Created with Sketch.</desc>
    <defs></defs>
    <g id="Page-1" stroke="none" stroke-width="1" fill="none" fill-rule="evenodd">
        <g id="location_icon" stroke="#CCCCCC">
            <polygon id="Stroke-1" points="0.5 20.5 20.5 20.5 20.5 0.5 0.5 0.5"></polygon>
            <path d="M10.5,4.25 C13.261,4.25 15.5,6.489 15.5,9.25 C15.5,13.482 11.374,16.75 10.5,16.75 C9.626,16.75 5.5,13.482 5.5,9.25 C5.5,6.489 7.739,4.25 10.5,4.25 L10.5,4.25 Z" id="Stroke-3"></path>
            <path d="M13,9.25 C13,10.631 11.881,11.75 10.5,11.75 C9.119,11.75 8,10.631 8,9.25 C8,7.869 9.119,6.75 10.5,6.75 C11.881,6.75 13,7.869 13,9.25 L13,9.25 Z" id="Stroke-4"></path>
        </g>
    </g>
</svg>