<?xml version="1.0" encoding="UTF-8" standalone="no"?>
<svg width="159px" height="35px" viewBox="0 0 159 35" version="1.1" xmlns="http://www.w3.org/2000/svg" xmlns:xlink="http://www.w3.org/1999/xlink">
    <!-- Generator: Sketch 3.8.1 (29687) - http://www.bohemiancoding.com/sketch -->
    <title>logo_header</title>
    <desc>Created with Sketch.</desc>
    <defs>
        <polygon id="path-1" points="1.35525272e-20 0.0004 1.35525272e-20 29.0094 29.0078 29.0094 29.0078 0.0004 0 0.0004"></polygon>
    </defs>
    <g id="Page-1" stroke="none" stroke-width="1" fill="none" fill-rule="evenodd">
        <g id="logo_header" transform="translate(0.000000, -1.000000)">
            <path d="M36.7871,22.5224 C36.7871,22.6764 36.5001,22.8534 36.2131,22.9624 C35.9481,22.9414 32.4411,15.0674 32.4411,9.3324 C32.4411,6.1784 33.5011,3.6634 36.7871,3.4874 C36.3891,6.0234 36.1911,9.4644 36.1911,12.9494 C36.1911,15.3324 36.2791,17.7354 36.4781,19.8974 C37.6911,12.7074 39.2341,3.1564 42.5651,3.1564 C43.4041,3.1564 43.9321,4.0164 44.2641,5.3844 C44.9031,8.0094 44.8381,12.4644 44.8811,16.3464 C45.9631,10.2354 47.1981,4.8104 49.9991,4.8104 C53.4621,4.8104 52.1171,13.7214 53.1081,18.3094 C53.4171,19.7434 53.8801,20.2724 54.3881,20.2724 C55.2701,20.2724 56.3071,18.7284 56.9021,17.6924 C57.1671,17.2504 57.4311,16.7654 57.6521,16.3024 L58.0721,16.4124 C57.8721,16.8534 57.6081,17.2934 57.3441,17.7584 C56.2631,19.6764 54.1231,22.7864 52.2931,22.7864 C49.5141,22.7864 49.0511,17.6254 49.0511,13.5224 C49.0511,11.5164 49.1601,9.7504 49.1601,9.0014 C49.1601,7.8764 49.0951,7.1694 48.8951,7.1694 C47.5951,7.1694 45.7641,15.0004 44.9471,19.5444 C45.0141,20.6914 45.1031,21.6844 45.2571,22.4344 C45.0361,22.4784 44.8591,22.4784 44.6601,22.4784 C41.5521,22.4784 41.5071,17.7584 41.5071,14.0084 C41.5071,11.8034 41.7281,9.6194 41.7281,7.3474 C41.7281,6.2224 41.6611,5.5154 41.4631,5.5154 C39.8081,5.5154 36.7871,20.4044 36.7871,22.5224" id="Fill-1" fill="#000000"></path>
            <path d="M63.8286,25.5434 C62.1096,26.2714 61.0946,27.4844 61.0946,29.2724 C61.0946,31.7414 62.5506,33.4184 63.6746,33.4184 C64.3806,33.4184 64.9326,32.7794 64.9326,31.2344 C64.9326,29.4924 64.4246,27.5514 63.8286,25.5434 M63.6306,24.9264 C62.9916,22.8534 62.3076,20.7574 61.9536,18.7724 C61.4256,20.7354 60.2126,21.4194 59.1976,21.4194 C57.8966,21.4194 56.7056,19.2134 56.7056,17.4054 C56.7056,16.1914 57.2556,15.1554 58.6896,15.1554 C58.8876,15.1554 59.1086,15.1764 59.3506,15.2214 C59.2856,15.7514 59.2416,16.2814 59.2416,16.7434 C59.2416,18.5514 59.5936,20.2504 60.4326,20.2504 C60.9406,20.2504 61.5576,19.0594 61.7556,17.1624 C61.7336,16.9194 61.7336,16.6994 61.7336,16.4564 C61.7336,15.4644 62.8796,14.9344 63.7416,14.9344 C64.0486,14.9344 64.3136,15.0004 64.4916,15.1334 C64.4696,15.5964 64.4476,16.0814 64.4476,16.5674 C64.4476,19.0374 64.7766,21.6844 65.1306,24.3094 C68.0656,23.2504 71.6366,22.7864 75.4086,22.7864 C87.0336,22.7864 100.2676,27.2424 100.2676,32.7564 C100.2676,33.6614 99.4946,35.1614 97.7316,35.3154 C96.2756,30.2854 80.1066,24.5954 69.7396,24.5954 C68.0426,24.5954 66.5206,24.7504 65.2406,25.0814 C65.5276,27.2644 65.7696,29.3814 65.7696,31.3004 C65.7696,34.3224 63.4546,35.9994 61.4036,35.9994 C59.7496,35.9994 58.2486,34.8964 58.2486,32.5804 C58.2486,28.9624 60.3666,26.4714 63.6306,24.9264" id="Fill-3" fill="#000000"></path>
            <path d="M71.9907,21.8159 C71.1737,21.8159 70.3367,17.5369 70.3367,13.7219 C70.3367,10.7439 70.6217,8.8689 71.9467,8.0089 C70.7327,8.1629 69.5197,8.2739 68.4617,8.2739 C65.8797,8.2739 64.0047,7.6999 64.0047,6.1339 C64.0047,5.0969 64.6237,4.0819 65.3957,4.0609 C66.4977,4.9209 68.6157,5.2299 71.0417,5.2299 C75.4527,5.2299 80.8347,4.2149 82.5997,3.7739 C82.8867,4.0159 83.0187,4.2589 83.0187,4.5019 C83.0187,5.2519 78.5187,6.8399 73.9077,7.6999 C73.3137,11.8899 73.1377,16.2809 73.1377,21.3749 C73.1377,21.5959 72.3867,21.8159 71.9907,21.8159" id="Fill-5" fill="#000000"></path>
            <path d="M83.3281,18.0664 C83.5931,17.3614 83.7471,16.6334 83.7471,16.0384 C83.7471,15.1104 83.2171,14.6484 82.7541,14.6484 C82.5111,14.6484 82.3791,14.9564 82.3791,15.3984 C82.3791,16.1254 82.6871,17.2504 83.3281,18.0664 M78.2991,19.9194 C78.0111,19.2584 77.8801,18.4854 77.8801,17.7354 C77.8801,16.4124 78.2991,15.2434 78.9381,15.2434 C79.5341,15.2434 79.8191,15.8824 79.8191,16.7434 C79.8191,17.4934 79.6011,18.4194 79.2251,19.2584 C79.4901,19.9864 80.0191,20.5374 81.0121,20.5374 C81.6961,20.5374 82.3351,19.9634 82.8201,19.1474 C81.7391,18.3534 81.0991,16.9864 81.0991,15.8824 C81.0991,14.9124 81.6071,14.1634 82.7541,14.1634 C83.5711,14.1634 84.3861,14.7574 84.3861,16.1044 C84.3861,16.8754 84.1881,17.7584 83.8131,18.5964 C84.2321,18.9704 84.7621,19.1914 85.3571,19.1914 C86.1071,19.1914 86.7901,18.6844 87.3201,17.6924 L88.0701,16.3024 L88.4891,16.4124 L87.7611,17.7584 C87.1001,18.9704 86.0181,19.8314 84.8051,19.8314 C84.2771,19.8314 83.7911,19.6984 83.3501,19.4784 C82.6441,20.6254 81.6291,21.5074 80.4831,21.5074 C79.5791,21.5074 78.9601,21.0444 78.5411,20.3824 C77.9891,21.0444 77.3061,21.5074 76.5131,21.5074 C74.8791,21.5074 73.6001,19.0594 73.6001,17.0524 C73.6001,15.6844 74.1951,14.5374 75.7181,14.5374 C75.9831,14.5374 76.2701,14.5824 76.6001,14.6484 C76.3351,15.7954 76.1811,17.0734 76.1811,18.1554 C76.1811,19.5004 76.4241,20.5374 77.0411,20.5374 C77.5261,20.5374 77.9451,20.2954 78.2991,19.9194" id="Fill-7" fill="#000000"></path>
            <path d="M86.2607,12.5303 C85.6877,12.5303 85.1587,12.2213 85.1587,11.5603 C85.1587,10.7883 85.8637,10.3693 86.5257,10.3693 C87.0997,10.3693 87.6297,10.6773 87.6297,11.3393 C87.6297,12.1113 86.9237,12.5303 86.2607,12.5303 M92.1947,17.7583 C90.9587,19.9633 89.1507,21.2423 87.6517,21.2423 C86.1067,21.2423 84.8937,19.9193 84.8937,16.8973 C84.8937,15.9053 86.0407,15.3763 86.9017,15.3763 C87.2097,15.3763 87.4737,15.4413 87.6517,15.5743 C87.5847,16.1043 87.5407,16.6333 87.5407,17.0953 C87.5407,18.8393 88.0487,20.0523 88.9747,20.0523 C89.6807,20.0523 90.6067,19.3683 91.7537,17.6923 C92.0407,17.2503 92.2827,16.7653 92.5037,16.3023 L92.9227,16.4123 C92.7237,16.8533 92.4597,17.2943 92.1947,17.7583" id="Fill-9" fill="#000000"></path>
            <path d="M98.5908,15.0229 C98.9448,15.0229 99.2968,15.0889 99.6058,15.2209 C99.6058,15.4639 99.5838,15.6849 99.5838,15.9049 C99.5838,18.5959 100.3338,19.8979 101.3918,19.8979 C102.2088,19.8979 103.1798,19.1479 104.1728,17.6919 C104.4578,17.2509 104.7008,16.7649 104.9208,16.3019 L105.3408,16.4129 C105.1408,16.8529 104.9008,17.3159 104.6128,17.7579 C103.3108,19.7429 101.5478,21.0439 100.0468,21.0439 C98.5018,21.0439 97.2458,19.6989 97.0028,16.3469 C95.9658,17.2939 95.1948,20.6909 94.6648,21.3749 C94.6648,21.3749 94.3558,21.5079 94.0038,21.5079 C92.5918,21.5079 91.5988,18.0439 91.5988,16.8979 C91.5988,15.7949 92.2608,14.4929 93.8258,14.4929 C94.1128,14.4929 94.4668,14.5379 94.8188,14.6479 C94.3778,16.4349 94.2668,18.0889 94.2668,19.1909 C94.2668,20.0519 94.3338,20.3609 94.4228,20.3609 C94.5538,20.3609 94.7528,19.6549 94.8858,19.3019 C95.6578,17.0739 96.3198,15.0229 98.5908,15.0229" id="Fill-11" fill="#000000"></path>
            <path d="M111.6938,15.7065 C110.5898,15.6395 109.8838,15.3315 109.8838,15.0005 C109.8838,14.8915 109.9728,14.7805 110.1268,14.6705 C110.5898,14.8695 111.0978,15.0225 111.5828,15.0895 C111.4288,14.0525 111.3178,13.0595 111.3178,12.2875 C111.3178,9.8175 112.1348,7.8545 114.8248,7.1925 C114.4508,9.6195 114.2748,12.0895 114.1858,14.5815 C116.3918,13.4135 117.7808,10.5895 117.7808,8.2075 C117.7808,6.1555 116.7438,4.4355 114.2518,4.4355 C110.2158,4.4355 108.1848,10.0605 108.1848,15.1105 C108.1848,19.1905 109.5098,22.8755 112.1548,22.8755 C112.6188,22.8755 112.9498,22.6115 112.9498,21.9275 C112.9498,21.3525 112.1778,18.4415 111.6938,15.7065 M114.1628,15.4415 C114.1188,17.3615 114.1188,19.3025 114.1188,21.2425 C114.1188,22.2795 113.6778,23.4265 112.2888,23.4265 C107.0828,23.4265 104.5908,19.5885 104.5908,15.2875 C104.5908,9.8395 108.6058,3.6415 116.2358,3.6415 C119.9208,3.6415 121.3748,5.2295 121.3748,7.2585 C121.3748,10.3245 118.0668,14.3615 114.1628,15.4415" id="Fill-13" fill="#000000"></path>
            <path d="M124.0444,14.4272 C125.9414,10.9192 126.6254,8.1182 126.6254,6.3102 C126.6254,4.7872 126.4044,4.3022 125.8094,4.3022 C124.7504,4.3022 124.0224,8.4502 124.0224,12.4202 C124.0224,13.1032 124.0224,13.7872 124.0444,14.4272 M124.0664,15.1552 C124.1984,18.0222 124.6184,20.2062 125.7434,20.2062 C126.3824,20.2062 127.2644,19.4782 128.4794,17.6922 C128.7644,17.2502 129.0074,16.7652 129.2274,16.3022 L129.6484,16.4122 C129.4484,16.8532 129.2054,17.3162 128.9184,17.7582 C127.2434,20.2062 125.6764,21.3752 124.4184,21.3752 C122.6324,21.3752 121.4634,19.0372 121.4634,14.7802 C121.4634,9.7072 123.9124,3.4432 126.0524,3.4432 C126.8024,3.4432 127.3534,4.3022 127.3534,5.9352 C127.3534,7.9202 126.3604,11.0522 124.0664,15.1552" id="Fill-15" fill="#000000"></path>
            <path d="M134.9854,18.6406 C135.4704,17.8906 135.7134,17.0526 135.7134,16.4566 C135.7134,15.9936 135.5804,15.6846 135.2724,15.6846 C135.0074,15.6846 134.8534,16.3686 134.8534,17.2286 C134.8534,17.6926 134.8964,18.1786 134.9854,18.6406 M133.9924,19.7436 C133.6184,19.0816 133.4204,18.2646 133.4204,17.5366 C133.4204,16.3906 133.9254,15.4416 135.1184,15.4416 C135.8454,15.4416 136.1984,15.9716 136.1984,16.6996 C136.1984,17.4716 135.8224,18.4416 135.1614,19.3026 C135.4044,19.9636 135.7574,20.4486 136.3084,20.4486 C137.2344,20.4486 138.4474,19.5006 139.6394,17.6926 C139.9264,17.2506 140.1684,16.7656 140.3894,16.3026 L140.8084,16.4126 C140.6094,16.8526 140.3674,17.3166 140.0804,17.7586 C138.7124,19.8536 137.1474,21.1326 135.9564,21.1326 C135.2944,21.1326 134.7424,20.7576 134.3014,20.2286 C133.4644,20.9346 132.3384,21.4416 131.0154,21.4416 C129.0964,21.4416 128.2574,20.3386 128.2574,18.9936 C128.2574,16.8306 130.3964,14.0526 133.7274,14.0526 C134.6534,14.0526 135.1834,14.4276 135.1834,14.7576 C135.1834,15.0006 134.8964,15.2216 134.2574,15.2876 C134.0594,14.6266 133.5514,14.5376 133.0444,14.5376 C131.6994,14.5376 130.8834,16.5226 130.8834,18.1786 C130.8834,19.3456 131.3024,20.3386 132.2284,20.3386 C132.9124,20.3386 133.5074,20.1176 133.9924,19.7436" id="Fill-17" fill="#000000"></path>
            <path d="M149.4756,16.3022 L149.8956,16.4122 C149.6976,16.8532 149.4546,17.3162 149.1676,17.7582 C147.7786,20.0082 144.9336,21.3752 142.6176,21.3752 C140.3886,21.3752 139.4186,20.1612 139.4186,18.7282 C139.4186,16.5882 141.5136,13.9422 144.6686,13.9422 C145.7486,13.9422 146.4986,14.7132 146.4986,15.2872 C146.4986,15.6182 146.2336,15.8822 145.6386,15.8822 C145.5276,15.8822 145.3966,15.8822 145.2626,15.8612 C145.1756,14.8462 144.7566,14.4492 144.2936,14.4492 C142.9026,14.4492 142.0876,16.1472 142.0876,17.7362 C142.0876,19.1252 142.7046,20.4042 144.1606,20.4042 C145.7486,20.4042 147.7786,19.1472 148.7266,17.6922 C149.0146,17.2502 149.2566,16.7652 149.4756,16.3022" id="Fill-19" fill="#000000"></path>
            <path d="M152.8286,14.5151 C151.7926,14.5151 151.0426,16.1251 151.0426,17.6481 C151.0426,17.9121 151.0646,18.1781 151.1096,18.4191 C152.1676,18.4191 153.2916,16.2581 153.2916,15.1551 C153.2916,14.7801 153.1606,14.5151 152.8286,14.5151 M157.4376,17.6921 C157.7246,17.2501 157.9676,16.7651 158.1876,16.3021 L158.6086,16.4121 C158.4086,16.8531 158.1656,17.3161 157.8806,17.7581 C156.4896,20.0081 154.0866,21.3751 151.7706,21.3751 C149.3666,21.3751 148.4626,20.3171 148.4626,19.0151 C148.4626,16.7881 151.0426,13.8091 153.2916,13.8091 C154.3956,13.8091 154.8576,14.3841 154.8576,15.1551 C154.8576,16.6101 153.2046,18.7281 151.1746,18.7281 C151.4396,19.6761 152.1006,20.4041 153.3136,20.4041 C154.9016,20.4041 156.4896,19.1471 157.4376,17.6921" id="Fill-21" fill="#000000"></path>
            <g id="Group-25" transform="translate(0.000000, 0.999500)">
                <mask id="mask-2" fill="white">
                    <use xlink:href="#path-1"></use>
                </mask>
                <g id="Clip-24"></g>
                <path d="M29.0078,14.5034 C29.0078,22.5154 22.5158,29.0094 14.5038,29.0094 C6.4938,29.0094 -0.0002,22.5154 -0.0002,14.5034 C-0.0002,6.4934 6.4938,0.0004 14.5038,0.0004 C22.5158,0.0004 29.0078,6.4934 29.0078,14.5034" id="Fill-23" fill="#7CB8CB" mask="url(#mask-2)"></path>
            </g>
            <path d="M3.8345,16.1113 C3.5955,15.8723 3.5955,15.4843 3.8345,15.2453 L10.4485,8.6313 C10.6775,8.4023 10.9835,8.2833 11.2835,8.2843 C11.5845,8.2833 11.8925,8.4023 12.1215,8.6313 L18.7355,15.2453 C18.9745,15.4843 18.9745,15.8723 18.7355,16.1113 C18.4955,16.3503 18.1065,16.3503 17.8685,16.1113 L11.2835,9.5273 L4.7005,16.1113 C4.5815,16.2303 4.4245,16.2913 4.2665,16.2913 C4.1115,16.2913 3.9545,16.2303 3.8345,16.1113" id="Fill-26" fill="#FFFFFF"></path>
            <path d="M11.6104,9.6968 C11.5184,9.6068 11.4034,9.5628 11.2844,9.5628 C11.1664,9.5628 11.0494,9.6068 10.9594,9.6968 L6.0014,14.6548 L6.0014,20.3568 C6.0014,20.7798 6.3434,21.1228 6.7674,21.1228 L9.7904,21.1228 L9.7904,17.2938 C9.7904,16.8718 10.1334,16.5288 10.5574,16.5288 L12.0124,16.5288 C12.4354,16.5288 12.7774,16.8718 12.7774,17.2938 L12.7774,21.1228 L15.8024,21.1228 C16.2244,21.1228 16.5684,20.7798 16.5684,20.3568 L16.5684,14.6548 L11.6104,9.6968 Z" id="Fill-28" fill="#FFFFFF"></path>
            <path d="M10.626,16.1113 C10.387,15.8723 10.387,15.4843 10.626,15.2453 L17.238,8.6313 C17.469,8.4023 17.775,8.2833 18.075,8.2843 C18.376,8.2833 18.682,8.4023 18.913,8.6313 L25.525,15.2453 C25.764,15.4843 25.764,15.8723 25.525,16.1113 C25.286,16.3503 24.898,16.3503 24.658,16.1113 L18.075,9.5273 L11.493,16.1113 C11.373,16.2303 11.216,16.2913 11.058,16.2913 C10.901,16.2913 10.746,16.2303 10.626,16.1113" id="Fill-30" fill="#FFFFFF"></path>
            <path d="M18.4004,9.6968 C18.3094,9.6068 18.1954,9.5628 18.0754,9.5628 C17.9574,9.5628 17.8414,9.6068 17.7514,9.6968 L12.7934,14.6548 L12.7934,20.3568 C12.7934,20.7798 13.1354,21.1228 13.5584,21.1228 L16.5824,21.1228 L16.5824,17.2938 C16.5824,16.8718 16.9254,16.5288 17.3474,16.5288 L18.8034,16.5288 C19.2254,16.5288 19.5694,16.8718 19.5694,17.2938 L19.5694,21.1228 L22.5944,21.1228 C23.0164,21.1228 23.3604,20.7798 23.3604,20.3568 L23.3604,14.6548 L18.4004,9.6968 Z" id="Fill-32" fill="#FFFFFF"></path>
            <path d="M12.3315,12.8027 C12.3315,13.3827 11.8635,13.8507 11.2835,13.8507 C10.7065,13.8507 10.2385,13.3827 10.2385,12.8027 C10.2385,12.2247 10.7065,11.7567 11.2835,11.7567 C11.8635,11.7567 12.3315,12.2247 12.3315,12.8027" id="Fill-34" fill="#7CB8CB"></path>
            <path d="M19.123,12.8027 C19.123,13.3827 18.653,13.8507 18.075,13.8507 C17.498,13.8507 17.029,13.3827 17.029,12.8027 C17.029,12.2247 17.498,11.7567 18.075,11.7567 C18.653,11.7567 19.123,12.2247 19.123,12.8027" id="Fill-36" fill="#7CB8CB"></path>
        </g>
    </g>
</svg>