<?xml version="1.0" encoding="UTF-8" standalone="no"?>
<svg width="43px" height="43px" viewBox="0 0 43 43" version="1.1" xmlns="http://www.w3.org/2000/svg" xmlns:xlink="http://www.w3.org/1999/xlink">
    <!-- Generator: Sketch 3.7.2 (28276) - http://www.bohemiancoding.com/sketch -->
    <title>logo</title>
    <desc>Created with Sketch.</desc>
    <defs></defs>
    <g id="Page-1" stroke="none" stroke-width="1" fill="none" fill-rule="evenodd">
        <g id="header_image" transform="translate(-12.000000, -9.000000)" fill="#77C5D5">
            <g id="logo" transform="translate(12.000000, 9.000000)">
                <path d="M16.6837,17.6955 C15.7787,17.6955 15.0447,18.4295 15.0447,19.3345 C15.0447,20.2395 15.7787,20.9735 16.6837,20.9735 C17.5887,20.9735 18.3227,20.2395 18.3227,19.3345 C18.3227,18.4295 17.5887,17.6955 16.6837,17.6955" id="Fill-5"></path>
                <path d="M26.0384,17.6955 C25.1334,17.6955 24.3994,18.4295 24.3994,19.3345 C24.3994,20.2395 25.1334,20.9735 26.0384,20.9735 C26.9434,20.9735 27.6774,20.2395 27.6774,19.3345 C27.6774,18.4295 26.9434,17.6955 26.0384,17.6955" id="Fill-7"></path>
                <path d="M34.4105,22.5608 L34.4105,31.4768 L29.2235,31.4768 L29.2235,24.6318 L23.7115,24.6318 L23.7115,31.4768 L22.4315,31.4768 L21.4475,31.4768 L19.0105,31.4768 L19.0105,24.6318 L13.4995,24.6318 L13.4995,31.4768 L8.3115,31.4768 L8.3115,22.5608 L6.2045,24.6318 L5.1505,23.6148 L16.0925,12.8348 L21.3615,17.7748 L26.6295,12.8348 L37.5715,23.6148 L36.5175,24.6318 L34.4105,22.5608 Z M21.3615,0.7368 C9.7635,0.7368 0.3615,10.1388 0.3615,21.7368 C0.3615,33.3348 9.7635,42.7368 21.3615,42.7368 C32.9595,42.7368 42.3615,33.3348 42.3615,21.7368 C42.3615,10.1388 32.9595,0.7368 21.3615,0.7368 L21.3615,0.7368 Z" id="Fill-9"></path>
            </g>
        </g>
    </g>
</svg>