<?xml version="1.0" encoding="UTF-8" standalone="no"?>
<svg width="182px" height="40px" viewBox="0 0 182 40" version="1.1" xmlns="http://www.w3.org/2000/svg" xmlns:xlink="http://www.w3.org/1999/xlink">
    <!-- Generator: Sketch 3.8.1 (29687) - http://www.bohemiancoding.com/sketch -->
    <title>logo_headerhome</title>
    <desc>Created with Sketch.</desc>
    <defs>
        <polygon id="path-1" points="12.267 9.2863 12.267 0.6393 0.6721 0.6393 0.6721 9.2863 12.267 9.2863"></polygon>
    </defs>
    <g id="Page-1" stroke="none" stroke-width="1" fill="none" fill-rule="evenodd">
        <g id="logo_headerhome">
            <g id="Group-24" transform="translate(37.000000, 2.000000)">
                <path d="M5.043,22.5972 C5.043,22.7742 4.715,22.9752 4.387,23.1002 C4.084,23.0762 0.076,14.0772 0.076,7.5222 C0.076,3.9182 1.287,1.0442 5.043,0.8432 C4.588,3.7412 4.361,7.6742 4.361,11.6572 C4.361,14.3802 4.463,17.1272 4.689,19.5972 C6.076,11.3802 7.84,0.4652 11.647,0.4652 C12.605,0.4652 13.209,1.4472 13.588,3.0112 C14.318,6.0112 14.244,11.1022 14.293,15.5392 C15.529,8.5552 16.941,2.3542 20.143,2.3542 C24.1,2.3542 22.563,12.5392 23.695,17.7832 C24.049,19.4212 24.578,20.0262 25.158,20.0262 C26.166,20.0262 27.352,18.2612 28.031,17.0772 C28.334,16.5722 28.637,16.0172 28.889,15.4882 L29.369,15.6152 C29.141,16.1182 28.838,16.6222 28.537,17.1522 C27.301,19.3452 24.855,22.8992 22.764,22.8992 C19.588,22.8992 19.059,17.0012 19.059,12.3112 C19.059,10.0192 19.184,8.0012 19.184,7.1442 C19.184,5.8582 19.109,5.0522 18.881,5.0522 C17.395,5.0522 15.303,14.0012 14.369,19.1942 C14.445,20.5052 14.547,21.6392 14.723,22.4962 C14.471,22.5472 14.268,22.5472 14.041,22.5472 C10.488,22.5472 10.438,17.1522 10.438,12.8672 C10.438,10.3472 10.689,7.8502 10.689,5.2542 C10.689,3.9682 10.613,3.1612 10.387,3.1612 C8.496,3.1612 5.043,20.1772 5.043,22.5972" id="Fill-1" fill="#FFFFFF"></path>
                <path d="M35.9473,26.0498 C33.9823,26.8818 32.8223,28.2688 32.8223,30.3118 C32.8223,33.1338 34.4863,35.0498 35.7713,35.0498 C36.5783,35.0498 37.2093,34.3198 37.2093,32.5538 C37.2093,30.5628 36.6293,28.3448 35.9473,26.0498 M35.7203,25.3448 C34.9903,22.9758 34.2093,20.5798 33.8043,18.3118 C33.2013,20.5548 31.8143,21.3368 30.6543,21.3368 C29.1683,21.3368 27.8063,18.8158 27.8063,16.7488 C27.8063,15.3618 28.4353,14.1778 30.0743,14.1778 C30.3013,14.1778 30.5523,14.2018 30.8303,14.2528 C30.7563,14.8588 30.7053,15.4648 30.7053,15.9928 C30.7053,18.0598 31.1073,20.0008 32.0663,20.0008 C32.6463,20.0008 33.3513,18.6398 33.5783,16.4718 C33.5523,16.1948 33.5523,15.9428 33.5523,15.6648 C33.5523,14.5308 34.8633,13.9248 35.8473,13.9248 C36.1993,13.9248 36.5023,14.0008 36.7053,14.1528 C36.6793,14.6818 36.6543,15.2368 36.6543,15.7918 C36.6543,18.6148 37.0313,21.6398 37.4353,24.6398 C40.7893,23.4288 44.8713,22.8998 49.1813,22.8998 C62.4673,22.8998 77.5923,27.9908 77.5923,34.2938 C77.5923,35.3268 76.7093,37.0418 74.6933,37.2178 C73.0293,31.4698 54.5513,24.9668 42.7033,24.9668 C40.7633,24.9668 39.0233,25.1438 37.5603,25.5218 C37.8883,28.0168 38.1663,30.4368 38.1663,32.6298 C38.1663,36.0838 35.5193,37.9998 33.1763,37.9998 C31.2853,37.9998 29.5703,36.7398 29.5703,34.0918 C29.5703,29.9578 31.9903,27.1098 35.7203,25.3448" id="Fill-3" fill="#FFFFFF"></path>
                <path d="M45.2754,21.79 C44.3414,21.79 43.3844,16.899 43.3844,12.54 C43.3844,9.136 43.7104,6.993 45.2244,6.011 C43.8384,6.186 42.4514,6.312 41.2424,6.312 C38.2914,6.312 36.1484,5.657 36.1484,3.867 C36.1484,2.683 36.8554,1.522 37.7384,1.498 C38.9984,2.482 41.4184,2.834 44.1914,2.834 C49.2324,2.834 55.3824,1.675 57.4004,1.171 C57.7284,1.447 57.8794,1.725 57.8794,2.002 C57.8794,2.859 52.7364,4.675 47.4664,5.657 C46.7874,10.446 46.5854,15.465 46.5854,21.286 C46.5854,21.538 45.7284,21.79 45.2754,21.79" id="Fill-5" fill="#FFFFFF"></path>
                <path d="M58.2324,17.5049 C58.5354,16.6989 58.7114,15.8669 58.7114,15.1869 C58.7114,14.1269 58.1054,13.5979 57.5764,13.5979 C57.2984,13.5979 57.1484,13.9509 57.1484,14.4559 C57.1484,15.2859 57.5004,16.5719 58.2324,17.5049 M52.4844,19.6219 C52.1564,18.8669 52.0054,17.9839 52.0054,17.1269 C52.0054,15.6149 52.4844,14.2779 53.2144,14.2779 C53.8964,14.2779 54.2224,15.0089 54.2224,15.9929 C54.2224,16.8499 53.9724,17.9079 53.5434,18.8669 C53.8454,19.6989 54.4514,20.3279 55.5864,20.3279 C56.3674,20.3279 57.0974,19.6729 57.6524,18.7399 C56.4164,17.8329 55.6854,16.2709 55.6854,15.0089 C55.6854,13.9009 56.2654,13.0439 57.5764,13.0439 C58.5094,13.0439 59.4414,13.7239 59.4414,15.2619 C59.4414,16.1439 59.2144,17.1519 58.7874,18.1099 C59.2654,18.5379 59.8714,18.7899 60.5504,18.7899 C61.4084,18.7899 62.1894,18.2109 62.7944,17.0769 L63.6524,15.4879 L64.1304,15.6149 L63.2984,17.1519 C62.5434,18.5379 61.3064,19.5219 59.9194,19.5219 C59.3164,19.5219 58.7614,19.3699 58.2574,19.1179 C57.4514,20.4289 56.2914,21.4379 54.9804,21.4379 C53.9474,21.4379 53.2404,20.9079 52.7614,20.1509 C52.1304,20.9079 51.3494,21.4379 50.4434,21.4379 C48.5764,21.4379 47.1154,18.6399 47.1154,16.3459 C47.1154,14.7829 47.7944,13.4719 49.5354,13.4719 C49.8384,13.4719 50.1664,13.5229 50.5434,13.5979 C50.2404,14.9089 50.0644,16.3699 50.0644,17.6069 C50.0644,19.1439 50.3414,20.3279 51.0474,20.3279 C51.6014,20.3279 52.0804,20.0519 52.4844,19.6219" id="Fill-7" fill="#FFFFFF"></path>
                <path d="M61.584,11.1777 C60.93,11.1777 60.324,10.8247 60.324,10.0697 C60.324,9.1867 61.131,8.7077 61.887,8.7077 C62.543,8.7077 63.148,9.0607 63.148,9.8167 C63.148,10.6987 62.342,11.1777 61.584,11.1777 M68.365,17.1527 C66.953,19.6727 64.887,21.1347 63.174,21.1347 C61.408,21.1347 60.022,19.6217 60.022,16.1687 C60.022,15.0347 61.332,14.4297 62.316,14.4297 C62.668,14.4297 62.971,14.5047 63.174,14.6567 C63.098,15.2617 63.047,15.8667 63.047,16.3957 C63.047,18.3877 63.627,19.7747 64.686,19.7747 C65.492,19.7747 66.551,18.9917 67.861,17.0767 C68.189,16.5727 68.467,16.0177 68.719,15.4887 L69.197,15.6147 C68.971,16.1177 68.668,16.6217 68.365,17.1527" id="Fill-9" fill="#FFFFFF"></path>
                <path d="M75.6758,14.0264 C76.0798,14.0264 76.4828,14.1024 76.8358,14.2534 C76.8358,14.5304 76.8108,14.7824 76.8108,15.0344 C76.8108,18.1104 77.6678,19.5974 78.8768,19.5974 C79.8108,19.5974 80.9198,18.7404 82.0548,17.0774 C82.3808,16.5724 82.6578,16.0174 82.9098,15.4884 L83.3908,15.6144 C83.1618,16.1184 82.8868,16.6474 82.5588,17.1524 C81.0698,19.4214 79.0548,20.9084 77.3398,20.9084 C75.5738,20.9084 74.1388,19.3704 73.8608,15.5394 C72.6758,16.6224 71.7948,20.5054 71.1898,21.2864 C71.1898,21.2864 70.8358,21.4374 70.4338,21.4374 C68.8198,21.4374 67.6858,17.4794 67.6858,16.1694 C67.6858,14.9094 68.4418,13.4214 70.2308,13.4214 C70.5588,13.4214 70.9628,13.4714 71.3648,13.5984 C70.8608,15.6394 70.7348,17.5304 70.7348,18.7904 C70.7348,19.7744 70.8108,20.1274 70.9118,20.1274 C71.0628,20.1274 71.2888,19.3204 71.4418,18.9174 C72.3238,16.3704 73.0798,14.0264 75.6758,14.0264" id="Fill-11" fill="#FFFFFF"></path>
                <path d="M90.6504,14.8076 C89.3884,14.7316 88.5824,14.3796 88.5824,14.0006 C88.5824,13.8756 88.6834,13.7486 88.8594,13.6236 C89.3884,13.8506 89.9684,14.0266 90.5234,14.1026 C90.3474,12.9166 90.2204,11.7826 90.2204,10.9006 C90.2204,8.0776 91.1544,5.8336 94.2284,5.0776 C93.8004,7.8506 93.5994,10.6736 93.4984,13.5226 C96.0194,12.1866 97.6074,8.9596 97.6074,6.2376 C97.6074,3.8926 96.4214,1.9276 93.5744,1.9276 C88.9614,1.9276 86.6404,8.3546 86.6404,14.1266 C86.6404,18.7896 88.1544,23.0006 91.1774,23.0006 C91.7074,23.0006 92.0864,22.6986 92.0864,21.9166 C92.0864,21.2606 91.2034,17.9336 90.6504,14.8076 M93.4724,14.5046 C93.4214,16.6986 93.4214,18.9166 93.4214,21.1346 C93.4214,22.3196 92.9184,23.6306 91.3304,23.6306 C85.3804,23.6306 82.5334,19.2446 82.5334,14.3286 C82.5334,8.1026 87.1214,1.0186 95.8414,1.0186 C100.0524,1.0186 101.7144,2.8336 101.7144,5.1536 C101.7144,8.6576 97.9334,13.2706 93.4724,14.5046" id="Fill-13" fill="#FFFFFF"></path>
                <path d="M104.7656,13.3457 C106.9336,9.3367 107.7146,6.1357 107.7146,4.0697 C107.7146,2.3287 107.4626,1.7747 106.7836,1.7747 C105.5726,1.7747 104.7406,6.5147 104.7406,11.0527 C104.7406,11.8327 104.7406,12.6147 104.7656,13.3457 M104.7906,14.1777 C104.9416,17.4537 105.4216,19.9507 106.7066,19.9507 C107.4376,19.9507 108.4456,19.1177 109.8336,17.0767 C110.1606,16.5727 110.4376,16.0177 110.6896,15.4887 L111.1696,15.6147 C110.9416,16.1177 110.6636,16.6477 110.3356,17.1527 C108.4216,19.9507 106.6306,21.2857 105.1936,21.2857 C103.1526,21.2857 101.8166,18.6147 101.8166,13.7487 C101.8166,7.9507 104.6156,0.7917 107.0606,0.7917 C107.9176,0.7917 108.5466,1.7747 108.5466,3.6407 C108.5466,5.9087 107.4126,9.4897 104.7906,14.1777" id="Fill-15" fill="#FFFFFF"></path>
                <path d="M117.2695,18.1611 C117.8245,17.3041 118.1015,16.3461 118.1015,15.6651 C118.1015,15.1361 117.9495,14.7831 117.5975,14.7831 C117.2945,14.7831 117.1195,15.5641 117.1195,16.5471 C117.1195,17.0771 117.1675,17.6321 117.2695,18.1611 M116.1345,19.4211 C115.7075,18.6651 115.4805,17.7311 115.4805,16.8991 C115.4805,15.5891 116.0585,14.5051 117.4215,14.5051 C118.2515,14.5051 118.6565,15.1101 118.6565,15.9421 C118.6565,16.8251 118.2265,17.9331 117.4705,18.9171 C117.7475,19.6731 118.1525,20.2271 118.7815,20.2271 C119.8395,20.2271 121.2265,19.1441 122.5875,17.0771 C122.9155,16.5721 123.1935,16.0171 123.4455,15.4881 L123.9235,15.6151 C123.6975,16.1181 123.4195,16.6471 123.0915,17.1521 C121.5295,19.5471 119.7405,21.0091 118.3785,21.0091 C117.6225,21.0091 116.9925,20.5801 116.4885,19.9751 C115.5315,20.7831 114.2445,21.3621 112.7325,21.3621 C110.5395,21.3621 109.5805,20.1011 109.5805,18.5641 C109.5805,16.0931 112.0255,12.9171 115.8325,12.9171 C116.8905,12.9171 117.4965,13.3461 117.4965,13.7241 C117.4965,14.0011 117.1675,14.2531 116.4375,14.3291 C116.2105,13.5731 115.6305,13.4721 115.0505,13.4721 C113.5135,13.4721 112.5825,15.7401 112.5825,17.6321 C112.5825,18.9671 113.0605,20.1011 114.1195,20.1011 C114.9005,20.1011 115.5805,19.8481 116.1345,19.4211" id="Fill-17" fill="#FFFFFF"></path>
                <path d="M133.8301,15.4883 L134.3101,15.6143 C134.0841,16.1183 133.8071,16.6473 133.4781,17.1523 C131.8901,19.7233 128.6391,21.2863 125.9921,21.2863 C123.4451,21.2863 122.3361,19.8993 122.3361,18.2603 C122.3361,15.8153 124.7301,12.7913 128.3361,12.7913 C129.5701,12.7913 130.4281,13.6733 130.4281,14.3293 C130.4281,14.7073 130.1251,15.0093 129.4451,15.0093 C129.3181,15.0093 129.1681,15.0093 129.0151,14.9843 C128.9161,13.8253 128.4371,13.3713 127.9081,13.3713 C126.3181,13.3713 125.3871,15.3113 125.3871,17.1273 C125.3871,18.7153 126.0921,20.1773 127.7561,20.1773 C129.5701,20.1773 131.8901,18.7403 132.9751,17.0773 C133.3031,16.5723 133.5801,16.0173 133.8301,15.4883" id="Fill-19" fill="#FFFFFF"></path>
                <g id="Group-23" transform="translate(132.000000, 12.000000)">
                    <mask id="mask-2" fill="white">
                        <use xlink:href="#path-1"></use>
                    </mask>
                    <g id="Clip-22"></g>
                    <path d="M5.6621,1.4463 C4.4781,1.4463 3.6211,3.2863 3.6211,5.0263 C3.6211,5.3293 3.6461,5.6323 3.6971,5.9083 C4.9061,5.9083 6.1911,3.4383 6.1911,2.1773 C6.1911,1.7493 6.0411,1.4463 5.6621,1.4463 M10.9301,5.0773 C11.2581,4.5723 11.5351,4.0173 11.7871,3.4883 L12.2671,3.6143 C12.0391,4.1183 11.7621,4.6473 11.4351,5.1523 C9.8461,7.7233 7.0991,9.2863 4.4531,9.2863 C1.7051,9.2863 0.6721,8.0773 0.6721,6.5893 C0.6721,4.0443 3.6211,0.6393 6.1911,0.6393 C7.4531,0.6393 7.9801,1.2963 7.9801,2.1773 C7.9801,3.8413 6.0921,6.2603 3.7711,6.2603 C4.0741,7.3443 4.8301,8.1773 6.2171,8.1773 C8.0311,8.1773 9.8461,6.7403 10.9301,5.0773" id="Fill-21" fill="#FFFFFF" mask="url(#mask-2)"></path>
                </g>
            </g>
            <g id="Group-36" fill="#FFFFFF">
                <g id="Group-27">
                    <path d="M29.1699,17.2725 C29.4499,17.0025 29.4499,16.5525 29.1699,16.2825 L21.6199,8.7225 C21.3499,8.4625 20.9999,8.3225 20.6599,8.3225 C20.3099,8.3225 19.9599,8.4625 19.6999,8.7225 L16.7799,11.6425 L13.8499,8.7225 C13.5899,8.4625 13.2399,8.3225 12.8999,8.3225 C12.5499,8.3225 12.1999,8.4625 11.9399,8.7225 L4.3799,16.2825 C4.1099,16.5525 4.1099,17.0025 4.3799,17.2725 C4.5199,17.4025 4.6999,17.4725 4.8799,17.4725 C5.0599,17.4725 5.2399,17.4025 5.3699,17.2725 L6.8599,15.7825 L6.8599,22.1225 C6.8599,22.6025 7.2499,23.0025 7.7299,23.0025 L11.1899,23.0025 L11.1899,18.6225 C11.1899,18.1425 11.5799,17.7525 12.0699,17.7525 L13.7299,17.7525 C14.2099,17.7525 14.5999,18.1425 14.5999,18.6225 L14.5999,23.0025 L15.4999,23.0025 L18.0599,23.0025 L18.9499,23.0025 L18.9499,18.6225 C18.9499,18.1425 19.3399,17.7525 19.8299,17.7525 L21.4899,17.7525 C21.9699,17.7525 22.3699,18.1425 22.3699,18.6225 L22.3699,23.0025 L25.8199,23.0025 C26.2999,23.0025 26.6999,22.6025 26.6999,22.1225 L26.6999,15.7825 L28.1799,17.2725 C28.4599,17.5425 28.8999,17.5425 29.1699,17.2725 M16.5799,0.0025 C25.7299,0.0025 33.1499,7.4225 33.1499,16.5725 C33.1499,25.7325 25.7299,33.1525 16.5799,33.1525 C7.4199,33.1525 -0.0001,25.7325 -0.0001,16.5725 C-0.0001,7.4225 7.4199,0.0025 16.5799,0.0025" id="Fill-25"></path>
                </g>
                <path d="M20.6602,12.2925 C21.3202,12.2925 21.8602,12.8325 21.8602,13.4925 C21.8602,14.1525 21.3202,14.6825 20.6602,14.6825 C20.0002,14.6825 19.4602,14.1525 19.4602,13.4925 C19.4602,12.8325 20.0002,12.2925 20.6602,12.2925" id="Fill-28"></path>
                <path d="M20.6602,9.7422 L20.7102,9.7922 C20.6902,9.7922 20.6802,9.7822 20.6602,9.7822 C20.6402,9.7822 20.6202,9.7922 20.6102,9.7922 L20.6602,9.7422 Z" id="Fill-30"></path>
                <path d="M12.8999,12.2925 C13.5599,12.2925 14.0899,12.8325 14.0899,13.4925 C14.0899,14.1525 13.5599,14.6825 12.8999,14.6825 C12.2399,14.6825 11.6999,14.1525 11.6999,13.4925 C11.6999,12.8325 12.2399,12.2925 12.8999,12.2925" id="Fill-32"></path>
                <path d="M12.8999,9.7422 L12.9499,9.7922 C12.9299,9.7922 12.9099,9.7822 12.8999,9.7822 C12.8799,9.7822 12.8599,9.7922 12.8499,9.7922 L12.8999,9.7422 Z" id="Fill-34"></path>
            </g>
        </g>
    </g>
</svg>