<?xml version="1.0" encoding="UTF-8" standalone="no"?>
<svg width="21px" height="17px" viewBox="0 0 21 17" version="1.1" xmlns="http://www.w3.org/2000/svg" xmlns:xlink="http://www.w3.org/1999/xlink">
    <!-- Generator: Sketch 3.7.2 (28276) - http://www.bohemiancoding.com/sketch -->
    <title>message_icon</title>
    <desc>Created with Sketch.</desc>
    <defs></defs>
    <g id="Page-1" stroke="none" stroke-width="1" fill="none" fill-rule="evenodd">
        <g id="header_image" transform="translate(-1589.000000, -23.000000)" fill="#4D4D4D">
            <g id="Page-1" transform="translate(83.000000, 0.000000)">
                <g id="Group-84">
                    <path d="M1507.954,23.8913 C1507.73,23.8913 1507.549,24.0733 1507.549,24.2963 L1507.549,34.8323 C1507.549,35.0563 1507.73,35.2373 1507.954,35.2373 L1509.98,35.2373 L1509.98,37.9063 L1512.649,35.2373 L1524.973,35.2373 C1525.197,35.2373 1525.378,35.0563 1525.378,34.8323 L1525.378,24.2963 C1525.378,24.0733 1525.197,23.8913 1524.973,23.8913 L1507.954,23.8913 Z M1509.17,39.8623 L1509.17,36.0473 L1507.954,36.0473 C1507.284,36.0473 1506.738,35.5023 1506.738,34.8323 L1506.738,24.2963 C1506.738,23.6263 1507.284,23.0813 1507.954,23.0813 L1524.973,23.0813 C1525.643,23.0813 1526.189,23.6263 1526.189,24.2963 L1526.189,34.8323 C1526.189,35.5023 1525.643,36.0473 1524.973,36.0473 L1512.984,36.0473 L1509.17,39.8623 Z" id="message_icon"></path>
                </g>
            </g>
        </g>
    </g>
</svg>