<?xml version="1.0" encoding="UTF-8" standalone="no"?>
<svg width="25px" height="25px" viewBox="0 0 25 25" version="1.1" xmlns="http://www.w3.org/2000/svg" xmlns:xlink="http://www.w3.org/1999/xlink">
    <!-- Generator: Sketch 3.8.1 (29687) - http://www.bohemiancoding.com/sketch -->
    <title>my-twin-place_icon</title>
    <desc>Created with Sketch.</desc>
    <defs>
        <polygon id="path-1" points="24.999 12.49995 24.999 0 0 0 0 12.49995 0 24.9999 24.999 24.9999 24.999 12.49995"></polygon>
    </defs>
    <g id="Page-1" stroke="none" stroke-width="1" fill="none" fill-rule="evenodd">
        <g id="my-twin-place_icon">
            <path d="M12.5,1.1899 C6.264,1.1899 1.191,6.2629 1.191,12.4989 C1.191,18.7349 6.264,23.8089 12.5,23.8089 C18.736,23.8089 23.809,18.7349 23.809,12.4989 C23.809,6.2629 18.736,1.1899 12.5,1.1899" id="Fill-1" fill="#C6E3EB"></path>
            <g id="Group-5">
                <mask id="mask-2" fill="white">
                    <use xlink:href="#path-1"></use>
                </mask>
                <g id="Clip-4"></g>
                <path d="M12.5,1.1899 C6.264,1.1899 1.191,6.2629 1.191,12.4989 C1.191,18.7349 6.264,23.8089 12.5,23.8089 C18.736,23.8089 23.809,18.7349 23.809,12.4989 C23.809,6.2629 18.736,1.1899 12.5,1.1899 M12.5,24.9999 C5.608,24.9999 0,19.3919 0,12.4989 C0,5.6069 5.608,-0.0001 12.5,-0.0001 C19.392,-0.0001 24.999,5.6069 24.999,12.4989 C24.999,19.3919 19.392,24.9999 12.5,24.9999" id="Fill-3" fill="#71B8CB" mask="url(#mask-2)"></path>
            </g>
            <path d="M15.4316,11.1421 C14.9566,11.1421 14.5736,10.7581 14.5736,10.2821 C14.5736,9.8081 14.9566,9.4241 15.4316,9.4241 C15.9056,9.4241 16.2906,9.8081 16.2906,10.2821 C16.2906,10.7581 15.9056,11.1421 15.4316,11.1421 L15.4316,11.1421 Z M9.8576,9.4241 C10.3316,9.4241 10.7176,9.8081 10.7176,10.2821 C10.7176,10.7581 10.3316,11.1421 9.8576,11.1421 C9.3836,11.1421 8.9976,10.7581 8.9976,10.2821 C8.9976,9.8081 9.3836,9.4241 9.8576,9.4241 L9.8576,9.4241 Z M9.8576,7.5931 L9.8936,7.6301 C9.8806,7.6291 9.8696,7.6231 9.8576,7.6231 C9.8446,7.6231 9.8326,7.6291 9.8206,7.6301 L9.8576,7.5931 Z M15.4316,7.5931 L15.4686,7.6301 C15.4546,7.6291 15.4446,7.6231 15.4316,7.6231 C15.4186,7.6231 15.4076,7.6291 15.3956,7.6301 L15.4316,7.5931 Z M21.5446,12.2871 L16.1186,6.8581 C15.9296,6.6701 15.6786,6.5731 15.4316,6.5741 C15.1846,6.5731 14.9336,6.6701 14.7446,6.8581 L12.6446,8.9581 L10.5436,6.8581 C10.3566,6.6701 10.1046,6.5731 9.8576,6.5741 C9.6106,6.5731 9.3596,6.6701 9.1706,6.8581 L3.7436,12.2871 C3.5456,12.4831 3.5456,12.8021 3.7436,12.9981 C3.8406,13.0961 3.9706,13.1451 4.0986,13.1451 C4.2276,13.1451 4.3566,13.0961 4.4536,12.9981 L4.4536,12.9971 L5.5216,11.9301 L5.5216,16.4821 C5.5216,16.8291 5.8026,17.1111 6.1506,17.1111 L8.6306,17.1111 L8.6306,13.9681 C8.6306,13.6211 8.9126,13.3401 9.2616,13.3401 L10.4536,13.3401 C10.8026,13.3401 11.0826,13.6211 11.0826,13.9681 L11.0826,17.1111 L11.7246,17.1111 L13.5656,17.1111 L14.2046,17.1111 L14.2046,13.9681 C14.2046,13.6211 14.4876,13.3401 14.8326,13.3401 L16.0286,13.3401 C16.3746,13.3401 16.6576,13.6211 16.6576,13.9681 L16.6576,17.1111 L19.1406,17.1111 C19.4866,17.1111 19.7686,16.8291 19.7686,16.4821 L19.7686,11.9311 L20.8336,12.9971 C21.0306,13.1941 21.3496,13.1941 21.5446,12.9981 C21.7416,12.8021 21.7416,12.4831 21.5446,12.2871 L21.5446,12.2871 Z" id="Fill-6" fill="#71B8CB"></path>
        </g>
    </g>
</svg>