<?xml version="1.0" encoding="UTF-8" standalone="no"?>
<svg width="32px" height="26px" viewBox="0 0 32 26" version="1.1" xmlns="http://www.w3.org/2000/svg" xmlns:xlink="http://www.w3.org/1999/xlink">
    <!-- Generator: Sketch 3.7.2 (28276) - http://www.bohemiancoding.com/sketch -->
    <title>people_icon</title>
    <desc>Created with Sketch.</desc>
    <defs></defs>
    <g id="Page-1" stroke="none" stroke-width="1" fill="none" fill-rule="evenodd">
        <g id="header_image" transform="translate(-594.000000, -1691.000000)">
            <g id="Group-583" transform="translate(362.000000, 1583.000000)">
                <g id="people_icon" transform="translate(233.000000, 108.000000)">
                    <path d="M11.1638,4.5129 C11.1638,6.5479 9.4748,8.1979 7.3908,8.1979 C5.3068,8.1979 3.6168,6.5479 3.6168,4.5129 C3.6168,2.4779 5.3068,0.8279 7.3908,0.8279 C9.4748,0.8279 11.1638,2.4779 11.1638,4.5129" id="Fill-547" fill="#F9F9F9"></path>
                    <path d="M11.1638,4.5129 C11.1638,6.5479 9.4748,8.1979 7.3908,8.1979 C5.3068,8.1979 3.6168,6.5479 3.6168,4.5129 C3.6168,2.4779 5.3068,0.8279 7.3908,0.8279 C9.4748,0.8279 11.1638,2.4779 11.1638,4.5129 L11.1638,4.5129 Z" id="Stroke-548" stroke="#929393" stroke-width="0.654"></path>
                    <path d="M14.7433,14.2241 C13.9793,10.9441 10.9803,8.4941 7.3903,8.4941 C3.8003,8.4941 0.8013,10.9441 0.0373,14.2241 C1.9363,16.0341 4.5283,17.1531 7.3903,17.1531 C10.2533,17.1531 12.8453,16.0341 14.7433,14.2241" id="Fill-549" fill="#F9F9F9"></path>
                    <path d="M14.7433,14.2241 C13.9793,10.9441 10.9803,8.4941 7.3903,8.4941 C3.8003,8.4941 0.8013,10.9441 0.0373,14.2241 C1.9363,16.0341 4.5283,17.1531 7.3903,17.1531 C10.2533,17.1531 12.8453,16.0341 14.7433,14.2241 L14.7433,14.2241 Z" id="Stroke-550" stroke="#929393" stroke-width="0.654"></path>
                    <path d="M26.3493,4.5129 C26.3493,6.5479 24.6603,8.1979 22.5763,8.1979 C20.4923,8.1979 18.8023,6.5479 18.8023,4.5129 C18.8023,2.4779 20.4923,0.8279 22.5763,0.8279 C24.6603,0.8279 26.3493,2.4779 26.3493,4.5129" id="Fill-551" fill="#F9F9F9"></path>
                    <path d="M26.3493,4.5129 C26.3493,6.5479 24.6603,8.1979 22.5763,8.1979 C20.4923,8.1979 18.8023,6.5479 18.8023,4.5129 C18.8023,2.4779 20.4923,0.8279 22.5763,0.8279 C24.6603,0.8279 26.3493,2.4779 26.3493,4.5129 L26.3493,4.5129 Z" id="Stroke-552" stroke="#929393" stroke-width="0.654"></path>
                    <path d="M29.9288,14.2241 C29.1648,10.9441 26.1658,8.4941 22.5758,8.4941 C18.9858,8.4941 15.9868,10.9441 15.2228,14.2241 C17.1218,16.0341 19.7138,17.1531 22.5758,17.1531 C25.4388,17.1531 28.0308,16.0341 29.9288,14.2241" id="Fill-553" fill="#F9F9F9"></path>
                    <path d="M29.9288,14.2241 C29.1648,10.9441 26.1658,8.4941 22.5758,8.4941 C18.9858,8.4941 15.9868,10.9441 15.2228,14.2241 C17.1218,16.0341 19.7138,17.1531 22.5758,17.1531 C25.4388,17.1531 28.0308,16.0341 29.9288,14.2241 L29.9288,14.2241 Z" id="Stroke-554" stroke="#929393" stroke-width="0.654"></path>
                    <path d="M18.7386,12.1208 C18.7386,14.1558 17.0496,15.8058 14.9656,15.8058 C12.8816,15.8058 11.1916,14.1558 11.1916,12.1208 C11.1916,10.0858 12.8816,8.4358 14.9656,8.4358 C17.0496,8.4358 18.7386,10.0858 18.7386,12.1208" id="Fill-555" fill="#F9F9F9"></path>
                    <path d="M14.9656,15.8058 C12.8816,15.8058 11.1916,14.1558 11.1916,12.1208 C11.1916,10.0858 12.8816,8.4358 14.9656,8.4358 C17.0496,8.4358 18.7386,10.0858 18.7386,12.1208 C18.7386,14.1558 17.0496,15.8058 14.9656,15.8058 Z" id="Stroke-556" stroke="#929393" stroke-width="0.654"></path>
                    <path d="M22.318,21.832 C21.554,18.552 18.555,16.102 14.965,16.102 C11.375,16.102 8.376,18.552 7.612,21.832 C9.511,23.642 12.103,24.761 14.965,24.761 C17.828,24.761 20.42,23.642 22.318,21.832" id="Fill-557" fill="#F9F9F9"></path>
                    <path d="M22.318,21.832 C21.554,18.552 18.555,16.102 14.965,16.102 C11.375,16.102 8.376,18.552 7.612,21.832 C9.511,23.642 12.103,24.761 14.965,24.761 C17.828,24.761 20.42,23.642 22.318,21.832 L22.318,21.832 Z" id="Stroke-558" stroke="#929393" stroke-width="0.654"></path>
                </g>
            </g>
        </g>
    </g>
</svg>