<?xml version="1.0" encoding="UTF-8" standalone="no"?>
<svg width="18px" height="25px" viewBox="0 0 18 25" version="1.1" xmlns="http://www.w3.org/2000/svg" xmlns:xlink="http://www.w3.org/1999/xlink">
    <!-- Generator: Sketch 3.7.2 (28276) - http://www.bohemiancoding.com/sketch -->
    <title>room_icon</title>
    <desc>Created with Sketch.</desc>
    <defs></defs>
    <g id="Page-1" stroke="none" stroke-width="1" fill="none" fill-rule="evenodd">
        <g id="header_image" transform="translate(-685.000000, -1691.000000)">
            <g id="Group-583" transform="translate(362.000000, 1583.000000)">
                <g id="room_icon" transform="translate(324.000000, 109.000000)">
                    <path d="M16.0995,18.7239 C16.0995,19.3609 15.5785,19.8819 14.9415,19.8819 L1.1975,19.8819 C0.5605,19.8819 0.0395,19.3609 0.0395,18.7239 L0.0395,1.4609 C0.0395,0.8239 0.5605,0.3029 1.1975,0.3029 L14.9415,0.3029 C15.5785,0.3029 16.0995,0.8239 16.0995,1.4609 L16.0995,18.7239 L16.0995,18.7239 Z" id="Fill-506" fill="#F9F9F9"></path>
                    <path d="M16.0995,18.7239 C16.0995,19.3609 15.5785,19.8819 14.9415,19.8819 L1.1975,19.8819 C0.5605,19.8819 0.0395,19.3609 0.0395,18.7239 L0.0395,1.4609 C0.0395,0.8239 0.5605,0.3029 1.1975,0.3029 L14.9415,0.3029 C15.5785,0.3029 16.0995,0.8239 16.0995,1.4609 L16.0995,18.7239 L16.0995,18.7239 Z" id="Stroke-508" stroke="#929393" stroke-width="0.694"></path>
                    <path d="M10.3805,22.6201 C10.3805,23.2571 9.8985,23.5801 9.3095,23.3381 L1.3435,20.0621 C0.7545,19.8201 0.2725,19.1011 0.2725,18.4641 L0.2725,2.0781 C0.2725,1.4411 0.7545,1.1181 1.3435,1.3601 L9.3095,4.6361 C9.8985,4.8781 10.3805,5.5971 10.3805,6.2341 L10.3805,22.6201 Z" id="Fill-510" fill="#F9F9F9"></path>
                    <path d="M10.3805,22.6201 C10.3805,23.2571 9.8985,23.5801 9.3095,23.3381 L1.3435,20.0621 C0.7545,19.8201 0.2725,19.1011 0.2725,18.4641 L0.2725,2.0781 C0.2725,1.4411 0.7545,1.1181 1.3435,1.3601 L9.3095,4.6361 C9.8985,4.8781 10.3805,5.5971 10.3805,6.2341 L10.3805,22.6201 L10.3805,22.6201 Z" id="Stroke-512" stroke="#929393" stroke-width="0.694"></path>
                </g>
            </g>
        </g>
    </g>
</svg>