<?xml version="1.0" encoding="UTF-8" standalone="no"?>
<svg width="20px" height="20px" viewBox="0 0 20 20" version="1.1" xmlns="http://www.w3.org/2000/svg" xmlns:xlink="http://www.w3.org/1999/xlink">
    <!-- Generator: Sketch 3.8.1 (29687) - http://www.bohemiancoding.com/sketch -->
    <title>search_icon_white</title>
    <desc>Created with Sketch.</desc>
    <defs>
        <polygon id="path-1" points="0.000424984852 19.9995 19.999 19.9995 19.999 0.000199939438 0.000424984852 0.000199939438"></polygon>
    </defs>
    <g id="Page-1" stroke="none" stroke-width="1" fill="none" fill-rule="evenodd">
        <g id="search_icon_white">
            <mask id="mask-2" fill="white">
                <use xlink:href="#path-1"></use>
            </mask>
            <g id="Clip-2"></g>
            <path d="M12.9253,12.9272 C10.1753,15.6772 5.6963,15.6772 2.9453,12.9272 C0.1933,10.1772 0.1933,5.6982 2.9453,2.9462 C5.6963,0.1952 10.1753,0.1952 12.9253,2.9462 C15.6773,5.6982 15.6753,10.1772 12.9253,12.9272 M13.5513,2.3232 C10.4533,-0.7738 5.4163,-0.7738 2.3213,2.3212 C-0.7737,5.4182 -0.7727,10.4562 2.3213,13.5512 C5.0953,16.3292 9.4293,16.6062 12.5293,14.4042 L17.7373,19.6112 C18.2543,20.1292 19.0923,20.1292 19.6123,19.6112 C20.1283,19.0932 20.1283,18.2562 19.6123,17.7382 L14.4013,12.5282 C16.6043,9.4312 16.3253,5.0982 13.5513,2.3232" id="Fill-1" fill="#FFFFFF" mask="url(#mask-2)"></path>
        </g>
    </g>
</svg>