<?xml version="1.0" encoding="UTF-8" standalone="no"?>
<svg width="18px" height="19px" viewBox="0 0 18 19" version="1.1" xmlns="http://www.w3.org/2000/svg" xmlns:xlink="http://www.w3.org/1999/xlink">
    <!-- Generator: Sketch 3.7.2 (28276) - http://www.bohemiancoding.com/sketch -->
    <title>search_icon</title>
    <desc>Created with Sketch.</desc>
    <defs>
        <polygon id="path-1" points="1.35525272e-20 0.63537483 1.35525272e-20 18.3645181 17.7290133 18.3645181 17.7290133 0.63537483 0 0.63537483"></polygon>
    </defs>
    <g id="Page-1" stroke="none" stroke-width="1" fill="none" fill-rule="evenodd">
        <g id="header_image" transform="translate(-83.000000, -21.000000)">
            <g id="Page-1" transform="translate(83.000000, 0.000000)">
                <g id="Group-69" transform="translate(0.000000, 15.000000)">
                    <g id="search_icon" transform="translate(0.000000, 6.000000)">
                        <mask id="mask-2" fill="white">
                            <use xlink:href="#path-1"></use>
                        </mask>
                        <g id="Clip-65"></g>
                        <path d="M9.4375,10.0715 C7.7375,11.7695 4.9815,11.7715 3.2835,10.0715 C1.5855,8.3705 1.5855,5.6175 3.2835,3.9175 C4.9815,2.2175 7.7375,2.2175 9.4375,3.9175 C11.1345,5.6175 11.1345,8.3705 9.4375,10.0715 M17.3435,16.1425 L11.6785,10.4805 C13.3005,8.0115 13.0245,4.6665 10.8565,2.4965 C8.3725,0.0145 4.3485,0.0145 1.8635,2.4995 C-0.6215,4.9815 -0.6215,9.0085 1.8635,11.4925 C4.0325,13.6615 7.3795,13.9335 9.8445,12.3135 L15.5105,17.9795 C16.0195,18.4885 16.8455,18.4945 17.3525,17.9875 C17.8575,17.4805 17.8545,16.6555 17.3435,16.1425" id="Fill-64" fill="#4D4D4D" mask="url(#mask-2)"></path>
                    </g>
                </g>
            </g>
        </g>
    </g>
</svg>