<?xml version="1.0" encoding="UTF-8" standalone="no"?>
<svg width="15px" height="15px" viewBox="0 0 15 15" version="1.1" xmlns="http://www.w3.org/2000/svg" xmlns:xlink="http://www.w3.org/1999/xlink">
    <!-- Generator: Sketch 3.8.1 (29687) - http://www.bohemiancoding.com/sketch -->
    <title>slider_logo</title>
    <desc>Created with Sketch.</desc>
    <defs>
        <polygon id="path-1" points="15 7.49995 15 0 0 0 0 7.49995 0 14.9999 15 14.9999 15 7.49995"></polygon>
    </defs>
    <g id="Page-1" stroke="none" stroke-width="1" fill="none" fill-rule="evenodd">
        <g id="slider_logo">
            <g id="Group-3">
                <mask id="mask-2" fill="white">
                    <use xlink:href="#path-1"></use>
                </mask>
                <g id="Clip-2"></g>
                <path d="M7.5,0.7139 C3.759,0.7139 0.715,3.7579 0.715,7.4989 C0.715,11.2409 3.759,14.2849 7.5,14.2849 C11.241,14.2849 14.284,11.2409 14.284,7.4989 C14.284,3.7579 11.241,0.7139 7.5,0.7139 M7.5,14.9999 C3.364,14.9999 0,11.6349 0,7.4989 C0,3.3639 3.364,-0.0001 7.5,-0.0001 C11.635,-0.0001 15,3.3639 15,7.4989 C15,11.6349 11.635,14.9999 7.5,14.9999" id="Fill-1" fill="#666666" mask="url(#mask-2)"></path>
            </g>
            <path d="M9.2588,6.6851 C8.9748,6.6851 8.7428,6.4541 8.7428,6.1691 C8.7428,5.8851 8.9748,5.6541 9.2588,5.6541 C9.5428,5.6541 9.7748,5.8851 9.7748,6.1691 C9.7748,6.4541 9.5428,6.6851 9.2588,6.6851 L9.2588,6.6851 Z M5.9138,5.6541 C6.1988,5.6541 6.4298,5.8851 6.4298,6.1691 C6.4298,6.4541 6.1988,6.6851 5.9138,6.6851 C5.6298,6.6851 5.3998,6.4541 5.3998,6.1691 C5.3998,5.8851 5.6298,5.6541 5.9138,5.6541 L5.9138,5.6541 Z M5.9138,4.5561 L5.9358,4.5781 C5.9288,4.5771 5.9218,4.5731 5.9138,4.5731 C5.9058,4.5731 5.8998,4.5771 5.8928,4.5781 L5.9138,4.5561 Z M9.2588,4.5561 L9.2798,4.5781 C9.2738,4.5771 9.2668,4.5731 9.2588,4.5731 C9.2518,4.5731 9.2438,4.5771 9.2368,4.5781 L9.2588,4.5561 Z M12.9278,7.3721 L9.6708,4.1151 C9.5578,4.0021 9.4058,3.9441 9.2588,3.9441 C9.1108,3.9441 8.9588,4.0021 8.8468,4.1151 L7.5858,5.3751 L6.3258,4.1151 C6.2138,4.0021 6.0628,3.9441 5.9138,3.9441 C5.7658,3.9441 5.6148,4.0021 5.5018,4.1151 L2.2448,7.3721 C2.1268,7.4901 2.1268,7.6811 2.2448,7.7981 C2.3048,7.8571 2.3818,7.8871 2.4578,7.8871 C2.5348,7.8871 2.6128,7.8571 2.6728,7.7981 L3.3128,7.1571 L3.3128,9.8891 C3.3128,10.0971 3.4818,10.2661 3.6898,10.2661 L5.1788,10.2661 L5.1788,8.3811 C5.1788,8.1731 5.3478,8.0041 5.5568,8.0041 L6.2728,8.0041 C6.4818,8.0041 6.6498,8.1731 6.6498,8.3811 L6.6498,10.2661 L7.0338,10.2661 L8.1398,10.2661 L8.5228,10.2661 L8.5228,8.3811 C8.5228,8.1731 8.6928,8.0041 8.9008,8.0041 L9.6168,8.0041 C9.8238,8.0041 9.9938,8.1731 9.9938,8.3811 L9.9938,10.2661 L11.4838,10.2661 C11.6918,10.2661 11.8608,10.0971 11.8608,9.8891 L11.8608,7.1581 L12.4998,7.7981 C12.6178,7.9161 12.8098,7.9161 12.9278,7.7981 C13.0448,7.6811 13.0448,7.4901 12.9278,7.3721 L12.9278,7.3721 Z" id="Fill-4" fill="#666666"></path>
        </g>
    </g>
</svg>