<?xml version="1.0" encoding="UTF-8" standalone="no"?>
<svg width="16px" height="16px" viewBox="0 0 16 16" version="1.1" xmlns="http://www.w3.org/2000/svg" xmlns:xlink="http://www.w3.org/1999/xlink">
    <!-- Generator: Sketch 3.8.1 (29687) - http://www.bohemiancoding.com/sketch -->
    <title>social_icon</title>
    <desc>Created with Sketch.</desc>
    <defs></defs>
    <g id="Page-1" stroke="none" stroke-width="1" fill="none" fill-rule="evenodd">
        <g id="social_icon" stroke="#CCCCCC">
            <path d="M8,8.4253 C8,10.4963 6.321,12.1753 4.25,12.1753 C2.179,12.1753 0.5,10.4963 0.5,8.4253 C0.5,6.3543 2.179,4.6753 4.25,4.6753 C6.321,4.6753 8,6.3543 8,8.4253 L8,8.4253 Z" id="Stroke-1"></path>
            <path d="M15.5,2.375 C15.5,3.41 14.661,4.25 13.625,4.25 C12.589,4.25 11.75,3.41 11.75,2.375 C11.75,1.339 12.589,0.5 13.625,0.5 C14.661,0.5 15.5,1.339 15.5,2.375 L15.5,2.375 Z" id="Stroke-3"></path>
            <path d="M15.5,13.6245 C15.5,14.6595 14.661,15.4995 13.625,15.4995 C12.589,15.4995 11.75,14.6595 11.75,13.6245 C11.75,12.5885 12.589,11.7495 13.625,11.7495 C14.661,11.7495 15.5,12.5885 15.5,13.6245 L15.5,13.6245 Z" id="Stroke-5"></path>
            <path d="M7.5293,10.2436 L12.0513,12.7516" id="Stroke-7"></path>
            <path d="M12.0518,3.3901 L7.3988,6.3931" id="Stroke-9"></path>
        </g>
    </g>
</svg>