<?xml version="1.0" encoding="UTF-8" standalone="no"?>
<svg width="21px" height="21px" viewBox="0 0 21 21" version="1.1" xmlns="http://www.w3.org/2000/svg" xmlns:xlink="http://www.w3.org/1999/xlink">
    <!-- Generator: Sketch 3.8.1 (29687) - http://www.bohemiancoding.com/sketch -->
    <title>facebook_icon</title>
    <desc>Created with Sketch.</desc>
    <defs></defs>
    <g id="Page-1" stroke="none" stroke-width="1" fill="none" fill-rule="evenodd">
        <g id="background_image" transform="translate(-379.000000, 0.000000)">
            <g id="facebook_icon" transform="translate(379.000000, 0.000000)">
                <polygon id="Stroke-1" stroke="#CCCCCC" points="0.5 20.5 20.5 20.5 20.5 0.5 0.5 0.5"></polygon>
                <path d="M11.2437,15.499 C11.2437,15.499 11.2427,12.745 11.2407,10.507 L12.6417,10.507 L12.8247,8.739 L11.2397,8.74 L11.2397,7.7 C11.2397,7.31 11.5007,7.218 11.6827,7.218 C11.8637,7.217 12.7987,7.217 12.7987,7.217 L12.7987,5.504 L11.2587,5.5 C9.5537,5.501 9.1617,6.776 9.1617,7.597 L9.1627,8.741 L8.1757,8.741 L8.1757,10.509 L9.1637,10.508 C9.1647,12.77 9.1657,15.5 9.1657,15.5 L11.2437,15.499 Z" id="Fill-3" fill="#CCCCCC"></path>
            </g>
        </g>
    </g>
</svg>