<?xml version="1.0" encoding="UTF-8" standalone="no"?>
<svg width="21px" height="21px" viewBox="0 0 21 21" version="1.1" xmlns="http://www.w3.org/2000/svg" xmlns:xlink="http://www.w3.org/1999/xlink">
    <!-- Generator: Sketch 3.8.1 (29687) - http://www.bohemiancoding.com/sketch -->
    <title>google_icon</title>
    <desc>Created with Sketch.</desc>
    <defs></defs>
    <g id="Page-1" stroke="none" stroke-width="1" fill="none" fill-rule="evenodd">
        <g id="background_image" transform="translate(-598.000000, -210.000000)">
            <g id="google_icon" transform="translate(598.000000, 210.000000)">
                <polygon id="Stroke-1" stroke="#CCCCCC" points="0.5 20.5 20.5 20.5 20.5 0.5 0.5 0.5"></polygon>
                <path d="M5.5083,10.3418 C5.5363,8.7058 7.0393,7.2728 8.6753,7.3268 C9.4603,7.2908 10.1963,7.6318 10.7963,8.1118 C10.5403,8.4028 10.2753,8.6838 9.9923,8.9458 C9.2703,8.4468 8.2433,8.3048 7.5213,8.8798 C6.4883,9.5938 6.4423,11.2808 7.4353,12.0488 C8.4013,12.9258 10.2263,12.4898 10.4943,11.1488 C9.8903,11.1388 9.2823,11.1488 8.6773,11.1288 C8.6763,10.7678 8.6743,10.4078 8.6763,10.0458 C9.6873,10.0428 10.6993,10.0418 11.7123,10.0488 C11.7723,10.8978 11.6613,11.8028 11.1393,12.5038 C10.3483,13.6148 8.7623,13.9398 7.5253,13.4638 C6.2833,12.9908 5.4043,11.6798 5.5083,10.3418" id="Fill-3" fill="#CCCCCC"></path>
                <path d="M13.6855,9.1353 L14.5875,9.1353 C14.5885,9.4373 14.5905,9.7393 14.5935,10.0423 C14.8945,10.0453 15.1975,10.0453 15.5005,10.0483 L15.5005,10.9503 C15.1985,10.9533 14.8965,10.9543 14.5935,10.9573 C14.5905,11.2593 14.5895,11.5613 14.5875,11.8633 L13.6825,11.8633 C13.6795,11.5623 13.6795,11.2603 13.6765,10.9583 C13.3745,10.9553 13.0725,10.9523 12.7695,10.9493 L12.7695,10.0473 C13.0715,10.0443 13.3725,10.0433 13.6765,10.0413 C13.6795,9.7383 13.6825,9.4373 13.6855,9.1353" id="Fill-4" fill="#CCCCCC"></path>
            </g>
        </g>
    </g>
</svg>