<?xml version="1.0" encoding="UTF-8" standalone="no"?>
<svg width="21px" height="21px" viewBox="0 0 21 21" version="1.1" xmlns="http://www.w3.org/2000/svg" xmlns:xlink="http://www.w3.org/1999/xlink">
    <!-- Generator: Sketch 3.8.1 (29687) - http://www.bohemiancoding.com/sketch -->
    <title>linkedin_icon</title>
    <desc>Created with Sketch.</desc>
    <defs></defs>
    <g id="Page-1" stroke="none" stroke-width="1" fill="none" fill-rule="evenodd">
        <g id="background_image" transform="translate(-598.000000, -210.000000)">
            <g id="linkedin_icon" transform="translate(598.000000, 210.000000)">
                <polygon id="Stroke-1" stroke="#CCCCCC" points="0.5 20.5 20.5 20.5 20.5 0.5 0.5 0.5"></polygon>
                <path d="M13.6626,15.3076 L13.6626,15.1106 C13.6626,13.9966 13.6666,12.8826 13.6586,11.7686 C13.6576,11.5296 13.6296,11.2866 13.5806,11.0516 C13.4936,10.6336 13.2676,10.3166 12.8266,10.2206 C12.3416,10.1146 11.9276,10.2476 11.6076,10.6376 C11.3956,10.8956 11.3226,11.1966 11.3226,11.5246 C11.3246,12.7236 11.3236,13.9226 11.3236,15.1216 L11.3236,15.2986 C11.2636,15.3026 11.2176,15.3076 11.1716,15.3076 C10.5226,15.3076 9.8726,15.3036 9.2236,15.3106 C9.0876,15.3126 9.0596,15.2666 9.0606,15.1406 C9.0706,13.5486 9.0786,11.9556 9.0826,10.3636 C9.0836,9.8186 9.0746,9.2736 9.0616,8.7286 C9.0586,8.5966 9.0886,8.5476 9.2316,8.5486 C9.8756,8.5566 10.5206,8.5516 11.1646,8.5526 C11.2116,8.5526 11.2576,8.5576 11.3166,8.5606 L11.3166,9.4836 C11.3896,9.3866 11.4396,9.3206 11.4896,9.2566 C11.9196,8.7066 12.4876,8.4356 13.1806,8.4056 C13.7376,8.3816 14.2666,8.4746 14.7426,8.7786 C15.3506,9.1676 15.6756,9.7496 15.8096,10.4376 C15.8786,10.7886 15.9146,11.1506 15.9176,11.5086 C15.9306,12.7126 15.9226,13.9166 15.9226,15.1206 C15.9226,15.3076 15.9226,15.3076 15.7376,15.3076 L13.8326,15.3076 L13.6626,15.3076 Z" id="Fill-3" fill="#CCCCCC"></path>
                <path d="M7.4585,15.2983 L5.2135,15.2983 C5.2105,15.2423 5.2065,15.1923 5.2065,15.1413 C5.2055,13.0003 5.2075,10.8593 5.2035,8.7173 C5.2035,8.5893 5.2355,8.5473 5.3685,8.5493 C6.0175,8.5553 6.6665,8.5543 7.3155,8.5503 C7.4305,8.5493 7.4705,8.5773 7.4705,8.6993 C7.4675,10.8543 7.4685,13.0103 7.4675,15.1663 C7.4675,15.2073 7.4625,15.2483 7.4585,15.2983" id="Fill-4" fill="#CCCCCC"></path>
                <path d="M6.3379,7.667 C5.7199,7.658 5.2619,7.334 5.1169,6.795 C4.9339,6.112 5.3559,5.454 6.0549,5.34 C6.5379,5.261 6.9869,5.332 7.3259,5.719 C7.6249,6.059 7.6899,6.464 7.5429,6.888 C7.3999,7.304 7.0819,7.534 6.6609,7.626 C6.5549,7.649 6.4459,7.654 6.3379,7.667" id="Fill-5" fill="#CCCCCC"></path>
            </g>
        </g>
    </g>
</svg>