<?xml version="1.0" encoding="UTF-8" standalone="no"?>
<svg width="22px" height="22px" viewBox="0 0 22 22" version="1.1" xmlns="http://www.w3.org/2000/svg" xmlns:xlink="http://www.w3.org/1999/xlink">
    <!-- Generator: Sketch 3.8.1 (29687) - http://www.bohemiancoding.com/sketch -->
    <title>phone_icon</title>
    <desc>Created with Sketch.</desc>
    <defs></defs>
    <g id="Page-1" stroke="none" stroke-width="1" fill="none" fill-rule="evenodd">
        <path d="M5.88983237,16.0987356 C14.6358324,24.8447356 20.2438324,19.3167356 20.6388324,18.8397356 C21.1988324,18.1677356 21.0478324,17.6797356 20.4118324,17.2297356 L15.8618324,13.9997356 C15.4058324,13.6777356 14.7888324,13.7767356 14.4798324,14.1987356 L13.2538324,15.8687356 C13.1798324,15.9697356 11.0318324,16.6537356 8.23383237,13.7617356 C5.36083237,10.7917356 6.03583237,8.80373555 6.13083237,8.73473555 L7.80183237,7.51173555 C8.22383237,7.20273555 8.32283237,6.58573555 8.00183237,6.12873555 L4.77883237,1.57473555 C4.32983237,0.936735552 3.84183237,0.785735552 3.16983237,1.34473555 C2.69183237,1.73973555 -2.84816763,7.36073555 5.88983237,16.0987356 L5.88983237,16.0987356 Z" id="phone_icon" stroke="#CCCCCC"></path>
    </g>
</svg>