<?xml version="1.0" encoding="UTF-8" standalone="no"?>
<svg width="21px" height="21px" viewBox="0 0 21 21" version="1.1" xmlns="http://www.w3.org/2000/svg" xmlns:xlink="http://www.w3.org/1999/xlink">
    <!-- Generator: Sketch 3.8.1 (29687) - http://www.bohemiancoding.com/sketch -->
    <title>twitter_icon</title>
    <desc>Created with Sketch.</desc>
    <defs></defs>
    <g id="Page-1" stroke="none" stroke-width="1" fill="none" fill-rule="evenodd">
        <g id="background_image" transform="translate(-528.000000, -16.000000)">
            <g id="twitter_icon" transform="translate(528.000000, 16.000000)">
                <polygon id="Stroke-1" stroke="#CCCCCC" points="0.5 20.5 20.5 20.5 20.5 0.5 0.5 0.5"></polygon>
                <path d="M15.5,7.3643 C15.451,7.7393 14.904,8.1173 14.575,8.4023 C14.902,13.2173 9.468,16.2223 5.5,13.7863 C6.615,13.7923 7.846,13.4853 8.506,12.8563 C7.545,12.7053 6.863,12.2683 6.597,11.4143 C6.881,11.3873 7.273,11.4733 7.464,11.3533 C6.583,11.0223 5.885,10.5033 5.845,9.3343 C6.158,9.3673 6.319,9.5513 6.712,9.5053 C6.142,9.1433 5.493,7.7533 6.076,6.7293 C7.109,7.8743 8.399,8.7643 10.412,8.9273 C9.912,6.7993 12.728,5.4823 13.996,7.0163 C14.486,6.9103 14.903,6.7273 15.324,6.5533 C15.151,7.0353 14.803,7.3403 14.46,7.6513 C14.831,7.5833 15.226,7.5343 15.5,7.3643" id="Fill-3" fill="#CCCCCC"></path>
            </g>
        </g>
    </g>
</svg>