<?xml version="1.0" encoding="UTF-8" standalone="no"?>
<svg width="38px" height="39px" viewBox="0 0 38 39" version="1.1" xmlns="http://www.w3.org/2000/svg" xmlns:xlink="http://www.w3.org/1999/xlink">
    <!-- Generator: Sketch 3.8.1 (29687) - http://www.bohemiancoding.com/sketch -->
    <title>facebook_icon</title>
    <desc>Created with Sketch.</desc>
    <defs></defs>
    <g id="Page-1" stroke="none" stroke-width="1" fill="none" fill-rule="evenodd">
        <g id="facebook_icon" transform="translate(0.000000, 1.000000)">
            <path d="M20.4863,28.9991 C20.4863,28.9991 20.4833,23.4661 20.4813,18.9711 L23.2943,18.9691 L23.6633,15.4161 L20.4793,15.4181 L20.4783,13.3291 C20.4773,12.5441 21.0023,12.3601 21.3673,12.3601 C21.7323,12.3601 23.6113,12.3591 23.6113,12.3591 L23.6093,8.9161 L20.5173,8.9091 C17.0913,8.9111 16.3023,11.4751 16.3033,13.1211 L16.3043,15.4201 L14.3213,15.4211 L14.3233,18.9741 L16.3063,18.9731 C16.3083,23.5161 16.3113,29.0011 16.3113,29.0011 L20.4863,28.9991 Z" id="Fill-1" fill="#77C5D5"></path>
            <path d="M34.9854,37.4688 L3.0184,37.4858 C1.6374,37.4858 0.5174,36.3668 0.5174,34.9868 L0.5004,3.0168 C0.4994,1.6358 1.6184,0.5158 2.9994,0.5148 L34.9654,0.4998 C36.3464,0.4988 37.4654,1.6178 37.4664,2.9978 L37.4844,34.9678 C37.4854,36.3478 36.3664,37.4678 34.9854,37.4688 L34.9854,37.4688 Z" id="Stroke-3" stroke="#77C5D5"></path>
        </g>
    </g>
</svg>