<?xml version="1.0" encoding="UTF-8" standalone="no"?>
<svg width="38px" height="39px" viewBox="0 0 38 39" version="1.1" xmlns="http://www.w3.org/2000/svg" xmlns:xlink="http://www.w3.org/1999/xlink">
    <!-- Generator: Sketch 3.8.1 (29687) - http://www.bohemiancoding.com/sketch -->
    <title>pinterest_icon</title>
    <desc>Created with Sketch.</desc>
    <defs></defs>
    <g id="Page-1" stroke="none" stroke-width="1" fill="none" fill-rule="evenodd">
        <g id="pinterest_icon" transform="translate(0.000000, 1.000000)">
            <path d="M18.9883,10.8243 C14.5163,10.8263 10.8973,14.4513 10.9003,18.9223 C10.9013,22.2373 12.8953,25.0843 15.7473,26.3313 C15.7223,25.7653 15.7423,25.0913 15.8893,24.4743 C16.0403,23.8163 16.9253,20.0643 16.9253,20.0643 C16.9253,20.0643 16.6663,19.5503 16.6653,18.7843 C16.6653,17.5833 17.3603,16.6863 18.2273,16.6853 C18.9613,16.6853 19.3213,17.2393 19.3213,17.9043 C19.3223,18.6393 18.8473,19.7453 18.6063,20.7753 C18.4043,21.6363 19.0383,22.3363 19.8843,22.3363 C21.4193,22.3353 22.4493,20.3623 22.4483,18.0283 C22.4473,16.2563 21.2533,14.9273 19.0763,14.9283 C16.6243,14.9293 15.0953,16.7623 15.0963,18.8043 C15.0963,19.5123 15.3043,20.0083 15.6303,20.3913 C15.7823,20.5703 15.8013,20.6413 15.7473,20.8453 C15.7083,20.9913 15.6183,21.3503 15.5813,21.4953 C15.5303,21.6993 15.3633,21.7723 15.1763,21.6973 C14.0503,21.2343 13.5203,19.9973 13.5203,18.6073 C13.5183,16.3083 15.4553,13.5483 19.3003,13.5463 C22.3903,13.5443 24.4263,15.7803 24.4273,18.1783 C24.4293,21.3583 22.6643,23.7293 20.0623,23.7313 C19.1853,23.7313 18.3663,23.2583 18.0863,22.7203 C18.0863,22.7203 17.6183,24.5883 17.5173,24.9463 C17.3433,25.5703 17.0093,26.1953 16.7013,26.6813 C17.4323,26.8963 18.1993,27.0123 18.9963,27.0113 C23.4683,27.0103 27.0873,23.3853 27.0853,18.9143 C27.0823,14.4423 23.4593,10.8223 18.9883,10.8243" id="Fill-1" fill="#77C5D5"></path>
            <path d="M34.9863,37.4688 L3.0183,37.4858 C1.6373,37.4858 0.5183,36.3668 0.5183,34.9868 L0.5003,3.0168 C0.4993,1.6358 1.6183,0.5158 2.9993,0.5148 L34.9653,0.4998 C36.3463,0.4988 37.4653,1.6178 37.4663,2.9978 L37.4853,34.9678 C37.4863,36.3478 36.3673,37.4678 34.9863,37.4688 L34.9863,37.4688 Z" id="Stroke-3" stroke="#77C5D5"></path>
        </g>
    </g>
</svg>