<?xml version="1.0" encoding="UTF-8" standalone="no"?>
<svg width="38px" height="39px" viewBox="0 0 38 39" version="1.1" xmlns="http://www.w3.org/2000/svg" xmlns:xlink="http://www.w3.org/1999/xlink">
    <!-- Generator: Sketch 3.8.1 (29687) - http://www.bohemiancoding.com/sketch -->
    <title>twitter_icon</title>
    <desc>Created with Sketch.</desc>
    <defs></defs>
    <g id="Page-1" stroke="none" stroke-width="1" fill="none" fill-rule="evenodd">
        <g id="twitter_icon" transform="translate(0.000000, 1.000000)">
            <path d="M28.2373,13.1934 C28.1473,13.8864 27.1343,14.5864 26.5263,15.1134 C27.1333,24.0154 17.0853,29.5724 9.7483,25.0674 C11.8083,25.0794 14.0863,24.5114 15.3053,23.3484 C13.5293,23.0684 12.2683,22.2614 11.7753,20.6824 C12.3013,20.6324 13.0263,20.7914 13.3793,20.5694 C11.7513,19.9574 10.4603,18.9984 10.3853,16.8354 C10.9643,16.8974 11.2623,17.2374 11.9893,17.1514 C10.9343,16.4824 9.7343,13.9134 10.8123,12.0194 C12.7223,14.1354 15.1083,15.7824 18.8303,16.0844 C17.9053,12.1484 23.1123,9.7134 25.4583,12.5504 C26.3623,12.3544 27.1333,12.0144 27.9123,11.6944 C27.5923,12.5844 26.9483,13.1484 26.3133,13.7244 C27.0023,13.5984 27.7303,13.5074 28.2373,13.1934" id="Fill-1" fill="#77C5D5"></path>
            <path d="M34.9863,37.4688 L3.0193,37.4858 C1.6383,37.4858 0.5183,36.3668 0.5183,34.9868 L0.5003,3.0168 C0.4993,1.6358 1.6183,0.5158 2.9993,0.5148 L34.9653,0.4998 C36.3473,0.4988 37.4653,1.6178 37.4663,2.9978 L37.4853,34.9678 C37.4863,36.3478 36.3673,37.4678 34.9863,37.4688 L34.9863,37.4688 Z" id="Stroke-3" stroke="#77C5D5"></path>
        </g>
    </g>
</svg>